<mxfile host="app.diagrams.net" modified="2020-08-14T10:39:07.935Z" agent="5.0 (Windows NT 10.0; Win64; x64) AppleWebKit/537.36 (KHTML, like Gecko) Chrome/84.0.4147.125 Safari/537.36" etag="oaq8PFlWumLJXqAAWt99" version="13.6.2" type="github">
  <diagram id="fib02sdIHswdbSPIdjaE" name="Page-1">
    <mxGraphModel dx="2249" dy="1931" grid="1" gridSize="10" guides="1" tooltips="1" connect="1" arrows="1" fold="1" page="1" pageScale="1" pageWidth="827" pageHeight="1169" math="0" shadow="0">
      <root>
        <mxCell id="0" />
        <mxCell id="1" parent="0" />
        <mxCell id="P9-t-jY8PYCdQ8GlsWrF-63" value="Environment 1 (Green)" style="rounded=1;whiteSpace=wrap;html=1;verticalAlign=top;fillColor=#d5e8d4;strokeColor=#82b366;" vertex="1" parent="1">
          <mxGeometry x="-215" y="830" width="216" height="200" as="geometry" />
        </mxCell>
        <mxCell id="6iWctxKtsx-vq_gi8lbH-1" value="" style="rounded=0;whiteSpace=wrap;html=1;dashed=1;" parent="1" vertex="1">
          <mxGeometry x="-780" y="-50" width="550" height="400" as="geometry" />
        </mxCell>
        <mxCell id="DyJc1EFnlRKIIAmwIYHC-7" style="rounded=0;orthogonalLoop=1;jettySize=auto;html=1;entryX=0.5;entryY=1;entryDx=0;entryDy=0;startArrow=classic;startFill=1;exitX=0;exitY=0.5;exitDx=0;exitDy=0;edgeStyle=orthogonalEdgeStyle;curved=1;" parent="1" source="DyJc1EFnlRKIIAmwIYHC-5" target="DyJc1EFnlRKIIAmwIYHC-3" edge="1">
          <mxGeometry relative="1" as="geometry" />
        </mxCell>
        <mxCell id="DyJc1EFnlRKIIAmwIYHC-8" style="edgeStyle=none;rounded=0;orthogonalLoop=1;jettySize=auto;html=1;entryX=0.5;entryY=1;entryDx=0;entryDy=0;startArrow=classic;startFill=1;" parent="1" source="DyJc1EFnlRKIIAmwIYHC-5" target="DyJc1EFnlRKIIAmwIYHC-2" edge="1">
          <mxGeometry relative="1" as="geometry" />
        </mxCell>
        <mxCell id="DyJc1EFnlRKIIAmwIYHC-5" value="" style="rounded=0;whiteSpace=wrap;html=1;dashed=1;" parent="1" vertex="1">
          <mxGeometry x="-610" y="273" width="210" height="73" as="geometry" />
        </mxCell>
        <mxCell id="DyJc1EFnlRKIIAmwIYHC-4" value="" style="rounded=0;whiteSpace=wrap;html=1;dashed=1;" parent="1" vertex="1">
          <mxGeometry x="-445" y="113" width="210" height="73" as="geometry" />
        </mxCell>
        <mxCell id="DyJc1EFnlRKIIAmwIYHC-11" style="edgeStyle=none;rounded=0;orthogonalLoop=1;jettySize=auto;html=1;entryX=0;entryY=0.5;entryDx=0;entryDy=0;startArrow=classic;startFill=1;" parent="1" source="DyJc1EFnlRKIIAmwIYHC-3" target="DyJc1EFnlRKIIAmwIYHC-4" edge="1">
          <mxGeometry relative="1" as="geometry" />
        </mxCell>
        <mxCell id="DyJc1EFnlRKIIAmwIYHC-3" value="" style="rounded=0;whiteSpace=wrap;html=1;dashed=1;" parent="1" vertex="1">
          <mxGeometry x="-773" y="113" width="210" height="73" as="geometry" />
        </mxCell>
        <mxCell id="DyJc1EFnlRKIIAmwIYHC-9" style="edgeStyle=orthogonalEdgeStyle;rounded=0;orthogonalLoop=1;jettySize=auto;html=1;entryX=0.5;entryY=0;entryDx=0;entryDy=0;startArrow=classic;startFill=1;exitX=0;exitY=0.5;exitDx=0;exitDy=0;curved=1;" parent="1" source="DyJc1EFnlRKIIAmwIYHC-2" target="DyJc1EFnlRKIIAmwIYHC-3" edge="1">
          <mxGeometry relative="1" as="geometry" />
        </mxCell>
        <mxCell id="DyJc1EFnlRKIIAmwIYHC-10" style="edgeStyle=orthogonalEdgeStyle;rounded=0;orthogonalLoop=1;jettySize=auto;html=1;entryX=0.5;entryY=0;entryDx=0;entryDy=0;startArrow=classic;startFill=1;exitX=1;exitY=0.5;exitDx=0;exitDy=0;curved=1;" parent="1" source="DyJc1EFnlRKIIAmwIYHC-2" target="DyJc1EFnlRKIIAmwIYHC-4" edge="1">
          <mxGeometry relative="1" as="geometry" />
        </mxCell>
        <mxCell id="DyJc1EFnlRKIIAmwIYHC-2" value="" style="rounded=0;whiteSpace=wrap;html=1;dashed=1;" parent="1" vertex="1">
          <mxGeometry x="-610" y="-40" width="210" height="73" as="geometry" />
        </mxCell>
        <mxCell id="6iWctxKtsx-vq_gi8lbH-6" value="" style="rounded=0;whiteSpace=wrap;html=1;dashed=1;" parent="1" vertex="1">
          <mxGeometry x="-780" y="600" width="210" height="73" as="geometry" />
        </mxCell>
        <mxCell id="6iWctxKtsx-vq_gi8lbH-5" value="" style="rounded=0;whiteSpace=wrap;html=1;dashed=1;" parent="1" vertex="1">
          <mxGeometry x="-780" y="520" width="210" height="73" as="geometry" />
        </mxCell>
        <mxCell id="6iWctxKtsx-vq_gi8lbH-4" value="" style="rounded=0;whiteSpace=wrap;html=1;dashed=1;" parent="1" vertex="1">
          <mxGeometry x="-780" y="440" width="210" height="73" as="geometry" />
        </mxCell>
        <mxCell id="6iWctxKtsx-vq_gi8lbH-3" value="" style="rounded=0;whiteSpace=wrap;html=1;dashed=1;" parent="1" vertex="1">
          <mxGeometry x="-780" y="357" width="210" height="73" as="geometry" />
        </mxCell>
        <mxCell id="CmVgD65-O8uPmQslicLz-12" style="edgeStyle=orthogonalEdgeStyle;rounded=0;orthogonalLoop=1;jettySize=auto;html=1;entryX=0;entryY=0.5;entryDx=0;entryDy=0;fontSize=11;" parent="1" source="CmVgD65-O8uPmQslicLz-2" target="CmVgD65-O8uPmQslicLz-7" edge="1">
          <mxGeometry relative="1" as="geometry" />
        </mxCell>
        <mxCell id="CmVgD65-O8uPmQslicLz-2" value="Business Capability Code 2" style="ellipse;whiteSpace=wrap;html=1;aspect=fixed;fontSize=11;" parent="1" vertex="1">
          <mxGeometry x="-188" y="100" width="64" height="64" as="geometry" />
        </mxCell>
        <mxCell id="CmVgD65-O8uPmQslicLz-8" style="edgeStyle=orthogonalEdgeStyle;rounded=0;orthogonalLoop=1;jettySize=auto;html=1;entryX=0;entryY=0.5;entryDx=0;entryDy=0;fontSize=11;" parent="1" source="CmVgD65-O8uPmQslicLz-3" target="CmVgD65-O8uPmQslicLz-7" edge="1">
          <mxGeometry relative="1" as="geometry" />
        </mxCell>
        <mxCell id="CmVgD65-O8uPmQslicLz-3" value="Business Capability Code 1" style="ellipse;whiteSpace=wrap;html=1;aspect=fixed;fontSize=11;" parent="1" vertex="1">
          <mxGeometry x="-188" y="20" width="64" height="64" as="geometry" />
        </mxCell>
        <mxCell id="CmVgD65-O8uPmQslicLz-10" style="edgeStyle=orthogonalEdgeStyle;rounded=0;orthogonalLoop=1;jettySize=auto;html=1;entryX=0;entryY=0.5;entryDx=0;entryDy=0;fontSize=11;" parent="1" source="CmVgD65-O8uPmQslicLz-4" target="CmVgD65-O8uPmQslicLz-7" edge="1">
          <mxGeometry relative="1" as="geometry" />
        </mxCell>
        <mxCell id="CmVgD65-O8uPmQslicLz-41" style="edgeStyle=none;rounded=0;orthogonalLoop=1;jettySize=auto;html=1;exitX=0;exitY=0.5;exitDx=0;exitDy=0;startArrow=classic;startFill=1;endArrow=none;endFill=0;fontSize=11;" parent="1" source="CmVgD65-O8uPmQslicLz-4" edge="1">
          <mxGeometry relative="1" as="geometry">
            <mxPoint x="-228" y="212" as="targetPoint" />
          </mxGeometry>
        </mxCell>
        <mxCell id="CmVgD65-O8uPmQslicLz-4" value="Business Capability Code 3" style="ellipse;whiteSpace=wrap;html=1;aspect=fixed;fontSize=11;fillColor=#dae8fc;strokeColor=#6c8ebf;" parent="1" vertex="1">
          <mxGeometry x="-188" y="180" width="64" height="64" as="geometry" />
        </mxCell>
        <mxCell id="CmVgD65-O8uPmQslicLz-11" style="edgeStyle=orthogonalEdgeStyle;rounded=0;orthogonalLoop=1;jettySize=auto;html=1;entryX=0;entryY=0.5;entryDx=0;entryDy=0;fontSize=11;" parent="1" source="CmVgD65-O8uPmQslicLz-5" target="CmVgD65-O8uPmQslicLz-7" edge="1">
          <mxGeometry relative="1" as="geometry" />
        </mxCell>
        <mxCell id="CmVgD65-O8uPmQslicLz-42" style="edgeStyle=none;rounded=0;orthogonalLoop=1;jettySize=auto;html=1;exitX=0;exitY=0.5;exitDx=0;exitDy=0;startArrow=classic;startFill=1;endArrow=none;endFill=0;fontSize=11;" parent="1" source="CmVgD65-O8uPmQslicLz-5" edge="1">
          <mxGeometry relative="1" as="geometry">
            <mxPoint x="-228" y="292" as="targetPoint" />
          </mxGeometry>
        </mxCell>
        <mxCell id="CmVgD65-O8uPmQslicLz-5" value="Business Capability Code 4" style="ellipse;whiteSpace=wrap;html=1;aspect=fixed;fontSize=11;fillColor=#dae8fc;strokeColor=#6c8ebf;" parent="1" vertex="1">
          <mxGeometry x="-188" y="260" width="64" height="64" as="geometry" />
        </mxCell>
        <mxCell id="CmVgD65-O8uPmQslicLz-13" value="" style="edgeStyle=orthogonalEdgeStyle;rounded=0;orthogonalLoop=1;jettySize=auto;html=1;fontSize=11;" parent="1" source="CmVgD65-O8uPmQslicLz-7" edge="1">
          <mxGeometry relative="1" as="geometry">
            <mxPoint x="112" y="175" as="targetPoint" />
          </mxGeometry>
        </mxCell>
        <mxCell id="CmVgD65-O8uPmQslicLz-7" value="Application Code" style="ellipse;whiteSpace=wrap;html=1;aspect=fixed;fontSize=11;fillColor=#dae8fc;strokeColor=#6c8ebf;" parent="1" vertex="1">
          <mxGeometry x="-58" y="120" width="110" height="110" as="geometry" />
        </mxCell>
        <mxCell id="CmVgD65-O8uPmQslicLz-14" value="Business Capability Code 1" style="ellipse;whiteSpace=wrap;html=1;aspect=fixed;fontSize=11;" parent="1" vertex="1">
          <mxGeometry x="-188" y="20" width="64" height="64" as="geometry" />
        </mxCell>
        <mxCell id="CmVgD65-O8uPmQslicLz-15" value="Business Capability Code 2" style="ellipse;whiteSpace=wrap;html=1;aspect=fixed;fontSize=11;" parent="1" vertex="1">
          <mxGeometry x="-188" y="100" width="64" height="64" as="geometry" />
        </mxCell>
        <mxCell id="CmVgD65-O8uPmQslicLz-16" value="Business Capability Code 1" style="ellipse;whiteSpace=wrap;html=1;aspect=fixed;fontSize=11;" parent="1" vertex="1">
          <mxGeometry x="-188" y="20" width="64" height="64" as="geometry" />
        </mxCell>
        <mxCell id="CmVgD65-O8uPmQslicLz-17" value="Business Capability Code 2" style="ellipse;whiteSpace=wrap;html=1;aspect=fixed;fontSize=11;" parent="1" vertex="1">
          <mxGeometry x="-188" y="100" width="64" height="64" as="geometry" />
        </mxCell>
        <mxCell id="CmVgD65-O8uPmQslicLz-39" style="edgeStyle=none;rounded=0;orthogonalLoop=1;jettySize=auto;html=1;exitX=0;exitY=0.5;exitDx=0;exitDy=0;fontSize=11;startArrow=classic;startFill=1;endArrow=none;endFill=0;" parent="1" source="CmVgD65-O8uPmQslicLz-18" edge="1">
          <mxGeometry relative="1" as="geometry">
            <mxPoint x="-228" y="52" as="targetPoint" />
          </mxGeometry>
        </mxCell>
        <mxCell id="CmVgD65-O8uPmQslicLz-18" value="Business Capability Code 1" style="ellipse;whiteSpace=wrap;html=1;aspect=fixed;fontSize=11;fillColor=#dae8fc;strokeColor=#6c8ebf;" parent="1" vertex="1">
          <mxGeometry x="-188" y="20" width="64" height="64" as="geometry" />
        </mxCell>
        <mxCell id="CmVgD65-O8uPmQslicLz-40" style="edgeStyle=none;rounded=0;orthogonalLoop=1;jettySize=auto;html=1;exitX=0;exitY=0.5;exitDx=0;exitDy=0;startArrow=classic;startFill=1;endArrow=none;endFill=0;fontSize=11;" parent="1" source="CmVgD65-O8uPmQslicLz-19" edge="1">
          <mxGeometry relative="1" as="geometry">
            <mxPoint x="-228" y="132" as="targetPoint" />
          </mxGeometry>
        </mxCell>
        <mxCell id="CmVgD65-O8uPmQslicLz-19" value="Business Capability Code 2" style="ellipse;whiteSpace=wrap;html=1;aspect=fixed;fontSize=11;fillColor=#dae8fc;strokeColor=#6c8ebf;" parent="1" vertex="1">
          <mxGeometry x="-188" y="100" width="64" height="64" as="geometry" />
        </mxCell>
        <mxCell id="CmVgD65-O8uPmQslicLz-20" value="Application" style="ellipse;whiteSpace=wrap;html=1;aspect=fixed;fontSize=11;fillColor=#dae8fc;strokeColor=#6c8ebf;" parent="1" vertex="1">
          <mxGeometry x="112" y="120" width="110" height="110" as="geometry" />
        </mxCell>
        <mxCell id="CmVgD65-O8uPmQslicLz-22" value="" style="shape=umlActor;verticalLabelPosition=bottom;verticalAlign=top;html=1;outlineConnect=0;fontSize=11;" parent="1" vertex="1">
          <mxGeometry x="-615" y="122" width="10" height="20" as="geometry" />
        </mxCell>
        <mxCell id="CmVgD65-O8uPmQslicLz-23" value="" style="shape=umlActor;verticalLabelPosition=bottom;verticalAlign=top;html=1;outlineConnect=0;fontSize=11;" parent="1" vertex="1">
          <mxGeometry x="-595" y="122" width="10" height="20" as="geometry" />
        </mxCell>
        <mxCell id="CmVgD65-O8uPmQslicLz-24" value="" style="shape=umlActor;verticalLabelPosition=bottom;verticalAlign=top;html=1;outlineConnect=0;fontSize=11;" parent="1" vertex="1">
          <mxGeometry x="-635" y="122" width="10" height="20" as="geometry" />
        </mxCell>
        <mxCell id="CmVgD65-O8uPmQslicLz-26" value="Development Team 2" style="text;html=1;strokeColor=none;fillColor=none;align=center;verticalAlign=middle;whiteSpace=wrap;rounded=0;fontSize=11;" parent="1" vertex="1">
          <mxGeometry x="-640" y="152" width="60" height="20" as="geometry" />
        </mxCell>
        <mxCell id="CmVgD65-O8uPmQslicLz-27" value="" style="shape=umlActor;verticalLabelPosition=bottom;verticalAlign=top;html=1;outlineConnect=0;fontSize=11;" parent="1" vertex="1">
          <mxGeometry x="-450" y="-27" width="10" height="20" as="geometry" />
        </mxCell>
        <mxCell id="CmVgD65-O8uPmQslicLz-28" value="" style="shape=umlActor;verticalLabelPosition=bottom;verticalAlign=top;html=1;outlineConnect=0;fontSize=11;" parent="1" vertex="1">
          <mxGeometry x="-430" y="-27" width="10" height="20" as="geometry" />
        </mxCell>
        <mxCell id="CmVgD65-O8uPmQslicLz-29" value="" style="shape=umlActor;verticalLabelPosition=bottom;verticalAlign=top;html=1;outlineConnect=0;fontSize=11;" parent="1" vertex="1">
          <mxGeometry x="-470" y="-27" width="10" height="20" as="geometry" />
        </mxCell>
        <mxCell id="CmVgD65-O8uPmQslicLz-30" value="Development Team 1" style="text;html=1;strokeColor=none;fillColor=none;align=center;verticalAlign=middle;whiteSpace=wrap;rounded=0;fontSize=11;" parent="1" vertex="1">
          <mxGeometry x="-475" y="3" width="60" height="20" as="geometry" />
        </mxCell>
        <mxCell id="CmVgD65-O8uPmQslicLz-31" value="" style="shape=umlActor;verticalLabelPosition=bottom;verticalAlign=top;html=1;outlineConnect=0;fontSize=11;" parent="1" vertex="1">
          <mxGeometry x="-285" y="122" width="10" height="20" as="geometry" />
        </mxCell>
        <mxCell id="CmVgD65-O8uPmQslicLz-32" value="" style="shape=umlActor;verticalLabelPosition=bottom;verticalAlign=top;html=1;outlineConnect=0;fontSize=11;" parent="1" vertex="1">
          <mxGeometry x="-265" y="122" width="10" height="20" as="geometry" />
        </mxCell>
        <mxCell id="CmVgD65-O8uPmQslicLz-33" value="" style="shape=umlActor;verticalLabelPosition=bottom;verticalAlign=top;html=1;outlineConnect=0;fontSize=11;" parent="1" vertex="1">
          <mxGeometry x="-305" y="122" width="10" height="20" as="geometry" />
        </mxCell>
        <mxCell id="CmVgD65-O8uPmQslicLz-34" value="Development Team 3" style="text;html=1;strokeColor=none;fillColor=none;align=center;verticalAlign=middle;whiteSpace=wrap;rounded=0;fontSize=11;" parent="1" vertex="1">
          <mxGeometry x="-310" y="152" width="60" height="20" as="geometry" />
        </mxCell>
        <mxCell id="CmVgD65-O8uPmQslicLz-35" value="" style="shape=umlActor;verticalLabelPosition=bottom;verticalAlign=top;html=1;outlineConnect=0;fontSize=11;" parent="1" vertex="1">
          <mxGeometry x="-455" y="283" width="10" height="20" as="geometry" />
        </mxCell>
        <mxCell id="CmVgD65-O8uPmQslicLz-36" value="" style="shape=umlActor;verticalLabelPosition=bottom;verticalAlign=top;html=1;outlineConnect=0;fontSize=11;" parent="1" vertex="1">
          <mxGeometry x="-435" y="283" width="10" height="20" as="geometry" />
        </mxCell>
        <mxCell id="CmVgD65-O8uPmQslicLz-37" value="" style="shape=umlActor;verticalLabelPosition=bottom;verticalAlign=top;html=1;outlineConnect=0;fontSize=11;" parent="1" vertex="1">
          <mxGeometry x="-475" y="283" width="10" height="20" as="geometry" />
        </mxCell>
        <mxCell id="CmVgD65-O8uPmQslicLz-38" value="Development Team 4" style="text;html=1;strokeColor=none;fillColor=none;align=center;verticalAlign=middle;whiteSpace=wrap;rounded=0;fontSize=11;" parent="1" vertex="1">
          <mxGeometry x="-480" y="313" width="60" height="20" as="geometry" />
        </mxCell>
        <mxCell id="CmVgD65-O8uPmQslicLz-43" style="edgeStyle=none;rounded=0;orthogonalLoop=1;jettySize=auto;html=1;exitX=0;exitY=0.5;exitDx=0;exitDy=0;startArrow=classic;startFill=1;endArrow=none;endFill=0;fontSize=11;" parent="1" edge="1">
          <mxGeometry relative="1" as="geometry">
            <mxPoint x="-360" y="147" as="targetPoint" />
            <mxPoint x="-320" y="147" as="sourcePoint" />
          </mxGeometry>
        </mxCell>
        <mxCell id="CmVgD65-O8uPmQslicLz-44" style="edgeStyle=none;rounded=0;orthogonalLoop=1;jettySize=auto;html=1;exitX=0;exitY=0.5;exitDx=0;exitDy=0;startArrow=classic;startFill=1;endArrow=none;endFill=0;fontSize=11;" parent="1" edge="1">
          <mxGeometry relative="1" as="geometry">
            <mxPoint x="-530" y="308" as="targetPoint" />
            <mxPoint x="-490" y="308" as="sourcePoint" />
          </mxGeometry>
        </mxCell>
        <mxCell id="CmVgD65-O8uPmQslicLz-45" style="edgeStyle=none;rounded=0;orthogonalLoop=1;jettySize=auto;html=1;exitX=0;exitY=0.5;exitDx=0;exitDy=0;fontSize=11;startArrow=classic;startFill=1;endArrow=none;endFill=0;" parent="1" edge="1">
          <mxGeometry relative="1" as="geometry">
            <mxPoint x="-525" y="-2" as="targetPoint" />
            <mxPoint x="-485" y="-2" as="sourcePoint" />
          </mxGeometry>
        </mxCell>
        <mxCell id="CmVgD65-O8uPmQslicLz-46" style="edgeStyle=none;rounded=0;orthogonalLoop=1;jettySize=auto;html=1;exitX=0;exitY=0.5;exitDx=0;exitDy=0;startArrow=classic;startFill=1;endArrow=none;endFill=0;fontSize=11;" parent="1" edge="1">
          <mxGeometry relative="1" as="geometry">
            <mxPoint x="-690" y="147" as="targetPoint" />
            <mxPoint x="-650" y="147" as="sourcePoint" />
          </mxGeometry>
        </mxCell>
        <mxCell id="CmVgD65-O8uPmQslicLz-47" value="" style="shape=umlActor;verticalLabelPosition=bottom;verticalAlign=top;html=1;outlineConnect=0;fontSize=11;" parent="1" vertex="1">
          <mxGeometry x="-735" y="122" width="10" height="20" as="geometry" />
        </mxCell>
        <mxCell id="CmVgD65-O8uPmQslicLz-48" value="" style="shape=umlActor;verticalLabelPosition=bottom;verticalAlign=top;html=1;outlineConnect=0;fontSize=11;" parent="1" vertex="1">
          <mxGeometry x="-715" y="122" width="10" height="20" as="geometry" />
        </mxCell>
        <mxCell id="CmVgD65-O8uPmQslicLz-49" value="" style="shape=umlActor;verticalLabelPosition=bottom;verticalAlign=top;html=1;outlineConnect=0;fontSize=11;" parent="1" vertex="1">
          <mxGeometry x="-755" y="122" width="10" height="20" as="geometry" />
        </mxCell>
        <mxCell id="CmVgD65-O8uPmQslicLz-50" value="Business Area 2" style="text;html=1;strokeColor=none;fillColor=none;align=center;verticalAlign=middle;whiteSpace=wrap;rounded=0;fontSize=11;" parent="1" vertex="1">
          <mxGeometry x="-760" y="152" width="60" height="20" as="geometry" />
        </mxCell>
        <mxCell id="CmVgD65-O8uPmQslicLz-51" value="" style="shape=umlActor;verticalLabelPosition=bottom;verticalAlign=top;html=1;outlineConnect=0;fontSize=11;" parent="1" vertex="1">
          <mxGeometry x="-570" y="-27" width="10" height="20" as="geometry" />
        </mxCell>
        <mxCell id="CmVgD65-O8uPmQslicLz-52" value="" style="shape=umlActor;verticalLabelPosition=bottom;verticalAlign=top;html=1;outlineConnect=0;fontSize=11;" parent="1" vertex="1">
          <mxGeometry x="-550" y="-27" width="10" height="20" as="geometry" />
        </mxCell>
        <mxCell id="CmVgD65-O8uPmQslicLz-53" value="" style="shape=umlActor;verticalLabelPosition=bottom;verticalAlign=top;html=1;outlineConnect=0;fontSize=11;" parent="1" vertex="1">
          <mxGeometry x="-590" y="-27" width="10" height="20" as="geometry" />
        </mxCell>
        <mxCell id="CmVgD65-O8uPmQslicLz-54" value="Business Area 1" style="text;html=1;strokeColor=none;fillColor=none;align=center;verticalAlign=middle;whiteSpace=wrap;rounded=0;fontSize=11;" parent="1" vertex="1">
          <mxGeometry x="-595" y="3" width="60" height="20" as="geometry" />
        </mxCell>
        <mxCell id="CmVgD65-O8uPmQslicLz-55" value="" style="shape=umlActor;verticalLabelPosition=bottom;verticalAlign=top;html=1;outlineConnect=0;fontSize=11;" parent="1" vertex="1">
          <mxGeometry x="-405" y="122" width="10" height="20" as="geometry" />
        </mxCell>
        <mxCell id="CmVgD65-O8uPmQslicLz-56" value="" style="shape=umlActor;verticalLabelPosition=bottom;verticalAlign=top;html=1;outlineConnect=0;fontSize=11;" parent="1" vertex="1">
          <mxGeometry x="-385" y="122" width="10" height="20" as="geometry" />
        </mxCell>
        <mxCell id="CmVgD65-O8uPmQslicLz-57" value="" style="shape=umlActor;verticalLabelPosition=bottom;verticalAlign=top;html=1;outlineConnect=0;fontSize=11;" parent="1" vertex="1">
          <mxGeometry x="-425" y="122" width="10" height="20" as="geometry" />
        </mxCell>
        <mxCell id="CmVgD65-O8uPmQslicLz-58" value="Business Area 3" style="text;html=1;strokeColor=none;fillColor=none;align=center;verticalAlign=middle;whiteSpace=wrap;rounded=0;fontSize=11;" parent="1" vertex="1">
          <mxGeometry x="-430" y="152" width="60" height="20" as="geometry" />
        </mxCell>
        <mxCell id="CmVgD65-O8uPmQslicLz-59" value="" style="shape=umlActor;verticalLabelPosition=bottom;verticalAlign=top;html=1;outlineConnect=0;fontSize=11;" parent="1" vertex="1">
          <mxGeometry x="-575" y="283" width="10" height="20" as="geometry" />
        </mxCell>
        <mxCell id="CmVgD65-O8uPmQslicLz-60" value="" style="shape=umlActor;verticalLabelPosition=bottom;verticalAlign=top;html=1;outlineConnect=0;fontSize=11;" parent="1" vertex="1">
          <mxGeometry x="-555" y="283" width="10" height="20" as="geometry" />
        </mxCell>
        <mxCell id="CmVgD65-O8uPmQslicLz-61" value="" style="shape=umlActor;verticalLabelPosition=bottom;verticalAlign=top;html=1;outlineConnect=0;fontSize=11;" parent="1" vertex="1">
          <mxGeometry x="-595" y="283" width="10" height="20" as="geometry" />
        </mxCell>
        <mxCell id="CmVgD65-O8uPmQslicLz-62" value="Business Area 4" style="text;html=1;strokeColor=none;fillColor=none;align=center;verticalAlign=middle;whiteSpace=wrap;rounded=0;fontSize=11;" parent="1" vertex="1">
          <mxGeometry x="-600" y="313" width="60" height="20" as="geometry" />
        </mxCell>
        <mxCell id="CmVgD65-O8uPmQslicLz-63" value="Business Capability Code 2" style="ellipse;whiteSpace=wrap;html=1;aspect=fixed;fontSize=11;" parent="1" vertex="1">
          <mxGeometry x="-535" y="440" width="64" height="64" as="geometry" />
        </mxCell>
        <mxCell id="CmVgD65-O8uPmQslicLz-64" value="Business Capability Code 1" style="ellipse;whiteSpace=wrap;html=1;aspect=fixed;fontSize=11;" parent="1" vertex="1">
          <mxGeometry x="-535" y="360" width="64" height="64" as="geometry" />
        </mxCell>
        <mxCell id="CmVgD65-O8uPmQslicLz-65" style="edgeStyle=none;rounded=0;orthogonalLoop=1;jettySize=auto;html=1;exitX=0;exitY=0.5;exitDx=0;exitDy=0;startArrow=classic;startFill=1;endArrow=none;endFill=0;fontSize=11;" parent="1" source="CmVgD65-O8uPmQslicLz-66" edge="1">
          <mxGeometry relative="1" as="geometry">
            <mxPoint x="-575" y="552" as="targetPoint" />
          </mxGeometry>
        </mxCell>
        <mxCell id="CmVgD65-O8uPmQslicLz-118" value="" style="edgeStyle=none;rounded=0;orthogonalLoop=1;jettySize=auto;html=1;startArrow=none;startFill=0;endArrow=classic;endFill=1;fontSize=11;" parent="1" source="CmVgD65-O8uPmQslicLz-66" target="CmVgD65-O8uPmQslicLz-117" edge="1">
          <mxGeometry relative="1" as="geometry" />
        </mxCell>
        <mxCell id="CmVgD65-O8uPmQslicLz-66" value="Business Capability Code 3" style="ellipse;whiteSpace=wrap;html=1;aspect=fixed;fontSize=11;fillColor=#dae8fc;strokeColor=#6c8ebf;" parent="1" vertex="1">
          <mxGeometry x="-535" y="520" width="64" height="64" as="geometry" />
        </mxCell>
        <mxCell id="CmVgD65-O8uPmQslicLz-67" style="edgeStyle=none;rounded=0;orthogonalLoop=1;jettySize=auto;html=1;exitX=0;exitY=0.5;exitDx=0;exitDy=0;startArrow=classic;startFill=1;endArrow=none;endFill=0;fontSize=11;" parent="1" source="CmVgD65-O8uPmQslicLz-68" edge="1">
          <mxGeometry relative="1" as="geometry">
            <mxPoint x="-575" y="632" as="targetPoint" />
          </mxGeometry>
        </mxCell>
        <mxCell id="CmVgD65-O8uPmQslicLz-120" value="" style="edgeStyle=none;rounded=0;orthogonalLoop=1;jettySize=auto;html=1;startArrow=none;startFill=0;endArrow=classic;endFill=1;fontSize=11;" parent="1" source="CmVgD65-O8uPmQslicLz-68" target="CmVgD65-O8uPmQslicLz-119" edge="1">
          <mxGeometry relative="1" as="geometry" />
        </mxCell>
        <mxCell id="CmVgD65-O8uPmQslicLz-68" value="Business Capability Code 4" style="ellipse;whiteSpace=wrap;html=1;aspect=fixed;fontSize=11;fillColor=#dae8fc;strokeColor=#6c8ebf;" parent="1" vertex="1">
          <mxGeometry x="-535" y="600" width="64" height="64" as="geometry" />
        </mxCell>
        <mxCell id="CmVgD65-O8uPmQslicLz-69" value="Business Capability Code 1" style="ellipse;whiteSpace=wrap;html=1;aspect=fixed;fontSize=11;" parent="1" vertex="1">
          <mxGeometry x="-535" y="360" width="64" height="64" as="geometry" />
        </mxCell>
        <mxCell id="CmVgD65-O8uPmQslicLz-70" value="Business Capability Code 2" style="ellipse;whiteSpace=wrap;html=1;aspect=fixed;fontSize=11;" parent="1" vertex="1">
          <mxGeometry x="-535" y="440" width="64" height="64" as="geometry" />
        </mxCell>
        <mxCell id="CmVgD65-O8uPmQslicLz-71" value="Business Capability Code 1" style="ellipse;whiteSpace=wrap;html=1;aspect=fixed;fontSize=11;" parent="1" vertex="1">
          <mxGeometry x="-535" y="360" width="64" height="64" as="geometry" />
        </mxCell>
        <mxCell id="CmVgD65-O8uPmQslicLz-72" value="Business Capability Code 2" style="ellipse;whiteSpace=wrap;html=1;aspect=fixed;fontSize=11;" parent="1" vertex="1">
          <mxGeometry x="-535" y="440" width="64" height="64" as="geometry" />
        </mxCell>
        <mxCell id="CmVgD65-O8uPmQslicLz-73" style="edgeStyle=none;rounded=0;orthogonalLoop=1;jettySize=auto;html=1;exitX=0;exitY=0.5;exitDx=0;exitDy=0;fontSize=11;startArrow=classic;startFill=1;endArrow=none;endFill=0;" parent="1" source="CmVgD65-O8uPmQslicLz-74" edge="1">
          <mxGeometry relative="1" as="geometry">
            <mxPoint x="-575" y="392" as="targetPoint" />
          </mxGeometry>
        </mxCell>
        <mxCell id="CmVgD65-O8uPmQslicLz-114" value="" style="edgeStyle=none;rounded=0;orthogonalLoop=1;jettySize=auto;html=1;startArrow=none;startFill=0;endArrow=classic;endFill=1;fontSize=11;" parent="1" source="CmVgD65-O8uPmQslicLz-74" target="CmVgD65-O8uPmQslicLz-113" edge="1">
          <mxGeometry relative="1" as="geometry" />
        </mxCell>
        <mxCell id="CmVgD65-O8uPmQslicLz-74" value="Business Capability Code 1" style="ellipse;whiteSpace=wrap;html=1;aspect=fixed;fontSize=11;fillColor=#dae8fc;strokeColor=#6c8ebf;" parent="1" vertex="1">
          <mxGeometry x="-535" y="360" width="64" height="64" as="geometry" />
        </mxCell>
        <mxCell id="CmVgD65-O8uPmQslicLz-75" style="edgeStyle=none;rounded=0;orthogonalLoop=1;jettySize=auto;html=1;exitX=0;exitY=0.5;exitDx=0;exitDy=0;startArrow=classic;startFill=1;endArrow=none;endFill=0;fontSize=11;" parent="1" source="CmVgD65-O8uPmQslicLz-76" edge="1">
          <mxGeometry relative="1" as="geometry">
            <mxPoint x="-575" y="472" as="targetPoint" />
          </mxGeometry>
        </mxCell>
        <mxCell id="CmVgD65-O8uPmQslicLz-116" value="" style="edgeStyle=none;rounded=0;orthogonalLoop=1;jettySize=auto;html=1;startArrow=none;startFill=0;endArrow=classic;endFill=1;fontSize=11;" parent="1" source="CmVgD65-O8uPmQslicLz-76" target="CmVgD65-O8uPmQslicLz-115" edge="1">
          <mxGeometry relative="1" as="geometry" />
        </mxCell>
        <mxCell id="CmVgD65-O8uPmQslicLz-76" value="Business Capability Code 2" style="ellipse;whiteSpace=wrap;html=1;aspect=fixed;fontSize=11;fillColor=#dae8fc;strokeColor=#6c8ebf;" parent="1" vertex="1">
          <mxGeometry x="-535" y="440" width="64" height="64" as="geometry" />
        </mxCell>
        <mxCell id="CmVgD65-O8uPmQslicLz-77" value="" style="shape=umlActor;verticalLabelPosition=bottom;verticalAlign=top;html=1;outlineConnect=0;fontSize=11;" parent="1" vertex="1">
          <mxGeometry x="-620" y="447" width="10" height="20" as="geometry" />
        </mxCell>
        <mxCell id="CmVgD65-O8uPmQslicLz-78" value="" style="shape=umlActor;verticalLabelPosition=bottom;verticalAlign=top;html=1;outlineConnect=0;fontSize=11;" parent="1" vertex="1">
          <mxGeometry x="-600" y="447" width="10" height="20" as="geometry" />
        </mxCell>
        <mxCell id="CmVgD65-O8uPmQslicLz-79" value="" style="shape=umlActor;verticalLabelPosition=bottom;verticalAlign=top;html=1;outlineConnect=0;fontSize=11;" parent="1" vertex="1">
          <mxGeometry x="-640" y="447" width="10" height="20" as="geometry" />
        </mxCell>
        <mxCell id="CmVgD65-O8uPmQslicLz-80" value="Development Team 2" style="text;html=1;strokeColor=none;fillColor=none;align=center;verticalAlign=middle;whiteSpace=wrap;rounded=0;fontSize=11;" parent="1" vertex="1">
          <mxGeometry x="-645" y="477" width="60" height="20" as="geometry" />
        </mxCell>
        <mxCell id="CmVgD65-O8uPmQslicLz-81" value="" style="shape=umlActor;verticalLabelPosition=bottom;verticalAlign=top;html=1;outlineConnect=0;fontSize=11;" parent="1" vertex="1">
          <mxGeometry x="-620" y="367" width="10" height="20" as="geometry" />
        </mxCell>
        <mxCell id="CmVgD65-O8uPmQslicLz-82" value="" style="shape=umlActor;verticalLabelPosition=bottom;verticalAlign=top;html=1;outlineConnect=0;fontSize=11;" parent="1" vertex="1">
          <mxGeometry x="-600" y="367" width="10" height="20" as="geometry" />
        </mxCell>
        <mxCell id="CmVgD65-O8uPmQslicLz-83" value="" style="shape=umlActor;verticalLabelPosition=bottom;verticalAlign=top;html=1;outlineConnect=0;fontSize=11;" parent="1" vertex="1">
          <mxGeometry x="-640" y="367" width="10" height="20" as="geometry" />
        </mxCell>
        <mxCell id="CmVgD65-O8uPmQslicLz-84" value="Development Team 1" style="text;html=1;strokeColor=none;fillColor=none;align=center;verticalAlign=middle;whiteSpace=wrap;rounded=0;fontSize=11;" parent="1" vertex="1">
          <mxGeometry x="-645" y="397" width="60" height="20" as="geometry" />
        </mxCell>
        <mxCell id="CmVgD65-O8uPmQslicLz-85" value="" style="shape=umlActor;verticalLabelPosition=bottom;verticalAlign=top;html=1;outlineConnect=0;fontSize=11;" parent="1" vertex="1">
          <mxGeometry x="-620" y="527" width="10" height="20" as="geometry" />
        </mxCell>
        <mxCell id="CmVgD65-O8uPmQslicLz-86" value="" style="shape=umlActor;verticalLabelPosition=bottom;verticalAlign=top;html=1;outlineConnect=0;fontSize=11;" parent="1" vertex="1">
          <mxGeometry x="-600" y="527" width="10" height="20" as="geometry" />
        </mxCell>
        <mxCell id="CmVgD65-O8uPmQslicLz-87" value="" style="shape=umlActor;verticalLabelPosition=bottom;verticalAlign=top;html=1;outlineConnect=0;fontSize=11;" parent="1" vertex="1">
          <mxGeometry x="-640" y="527" width="10" height="20" as="geometry" />
        </mxCell>
        <mxCell id="CmVgD65-O8uPmQslicLz-88" value="Development Team 3" style="text;html=1;strokeColor=none;fillColor=none;align=center;verticalAlign=middle;whiteSpace=wrap;rounded=0;fontSize=11;" parent="1" vertex="1">
          <mxGeometry x="-645" y="557" width="60" height="20" as="geometry" />
        </mxCell>
        <mxCell id="CmVgD65-O8uPmQslicLz-89" value="" style="shape=umlActor;verticalLabelPosition=bottom;verticalAlign=top;html=1;outlineConnect=0;fontSize=11;" parent="1" vertex="1">
          <mxGeometry x="-620" y="607" width="10" height="20" as="geometry" />
        </mxCell>
        <mxCell id="CmVgD65-O8uPmQslicLz-90" value="" style="shape=umlActor;verticalLabelPosition=bottom;verticalAlign=top;html=1;outlineConnect=0;fontSize=11;" parent="1" vertex="1">
          <mxGeometry x="-600" y="607" width="10" height="20" as="geometry" />
        </mxCell>
        <mxCell id="CmVgD65-O8uPmQslicLz-91" value="" style="shape=umlActor;verticalLabelPosition=bottom;verticalAlign=top;html=1;outlineConnect=0;fontSize=11;" parent="1" vertex="1">
          <mxGeometry x="-640" y="607" width="10" height="20" as="geometry" />
        </mxCell>
        <mxCell id="CmVgD65-O8uPmQslicLz-92" value="Development Team 4" style="text;html=1;strokeColor=none;fillColor=none;align=center;verticalAlign=middle;whiteSpace=wrap;rounded=0;fontSize=11;" parent="1" vertex="1">
          <mxGeometry x="-645" y="637" width="60" height="20" as="geometry" />
        </mxCell>
        <mxCell id="CmVgD65-O8uPmQslicLz-93" style="edgeStyle=none;rounded=0;orthogonalLoop=1;jettySize=auto;html=1;exitX=0;exitY=0.5;exitDx=0;exitDy=0;startArrow=classic;startFill=1;endArrow=none;endFill=0;fontSize=11;" parent="1" edge="1">
          <mxGeometry relative="1" as="geometry">
            <mxPoint x="-695" y="552" as="targetPoint" />
            <mxPoint x="-655" y="552" as="sourcePoint" />
          </mxGeometry>
        </mxCell>
        <mxCell id="CmVgD65-O8uPmQslicLz-94" style="edgeStyle=none;rounded=0;orthogonalLoop=1;jettySize=auto;html=1;exitX=0;exitY=0.5;exitDx=0;exitDy=0;startArrow=classic;startFill=1;endArrow=none;endFill=0;fontSize=11;" parent="1" edge="1">
          <mxGeometry relative="1" as="geometry">
            <mxPoint x="-695" y="632" as="targetPoint" />
            <mxPoint x="-655" y="632" as="sourcePoint" />
          </mxGeometry>
        </mxCell>
        <mxCell id="CmVgD65-O8uPmQslicLz-95" style="edgeStyle=none;rounded=0;orthogonalLoop=1;jettySize=auto;html=1;exitX=0;exitY=0.5;exitDx=0;exitDy=0;fontSize=11;startArrow=classic;startFill=1;endArrow=none;endFill=0;" parent="1" edge="1">
          <mxGeometry relative="1" as="geometry">
            <mxPoint x="-695" y="392" as="targetPoint" />
            <mxPoint x="-655" y="392" as="sourcePoint" />
          </mxGeometry>
        </mxCell>
        <mxCell id="CmVgD65-O8uPmQslicLz-96" style="edgeStyle=none;rounded=0;orthogonalLoop=1;jettySize=auto;html=1;exitX=0;exitY=0.5;exitDx=0;exitDy=0;startArrow=classic;startFill=1;endArrow=none;endFill=0;fontSize=11;" parent="1" edge="1">
          <mxGeometry relative="1" as="geometry">
            <mxPoint x="-695" y="472" as="targetPoint" />
            <mxPoint x="-655" y="472" as="sourcePoint" />
          </mxGeometry>
        </mxCell>
        <mxCell id="CmVgD65-O8uPmQslicLz-97" value="" style="shape=umlActor;verticalLabelPosition=bottom;verticalAlign=top;html=1;outlineConnect=0;fontSize=11;" parent="1" vertex="1">
          <mxGeometry x="-740" y="447" width="10" height="20" as="geometry" />
        </mxCell>
        <mxCell id="CmVgD65-O8uPmQslicLz-98" value="" style="shape=umlActor;verticalLabelPosition=bottom;verticalAlign=top;html=1;outlineConnect=0;fontSize=11;" parent="1" vertex="1">
          <mxGeometry x="-720" y="447" width="10" height="20" as="geometry" />
        </mxCell>
        <mxCell id="CmVgD65-O8uPmQslicLz-99" value="" style="shape=umlActor;verticalLabelPosition=bottom;verticalAlign=top;html=1;outlineConnect=0;fontSize=11;" parent="1" vertex="1">
          <mxGeometry x="-760" y="447" width="10" height="20" as="geometry" />
        </mxCell>
        <mxCell id="CmVgD65-O8uPmQslicLz-100" value="Business Area 2" style="text;html=1;strokeColor=none;fillColor=none;align=center;verticalAlign=middle;whiteSpace=wrap;rounded=0;fontSize=11;" parent="1" vertex="1">
          <mxGeometry x="-765" y="477" width="60" height="20" as="geometry" />
        </mxCell>
        <mxCell id="CmVgD65-O8uPmQslicLz-101" value="" style="shape=umlActor;verticalLabelPosition=bottom;verticalAlign=top;html=1;outlineConnect=0;fontSize=11;" parent="1" vertex="1">
          <mxGeometry x="-740" y="367" width="10" height="20" as="geometry" />
        </mxCell>
        <mxCell id="CmVgD65-O8uPmQslicLz-102" value="" style="shape=umlActor;verticalLabelPosition=bottom;verticalAlign=top;html=1;outlineConnect=0;fontSize=11;" parent="1" vertex="1">
          <mxGeometry x="-720" y="367" width="10" height="20" as="geometry" />
        </mxCell>
        <mxCell id="CmVgD65-O8uPmQslicLz-103" value="" style="shape=umlActor;verticalLabelPosition=bottom;verticalAlign=top;html=1;outlineConnect=0;fontSize=11;" parent="1" vertex="1">
          <mxGeometry x="-760" y="367" width="10" height="20" as="geometry" />
        </mxCell>
        <mxCell id="CmVgD65-O8uPmQslicLz-104" value="Business Area 1" style="text;html=1;strokeColor=none;fillColor=none;align=center;verticalAlign=middle;whiteSpace=wrap;rounded=0;fontSize=11;" parent="1" vertex="1">
          <mxGeometry x="-765" y="397" width="60" height="20" as="geometry" />
        </mxCell>
        <mxCell id="CmVgD65-O8uPmQslicLz-105" value="" style="shape=umlActor;verticalLabelPosition=bottom;verticalAlign=top;html=1;outlineConnect=0;fontSize=11;" parent="1" vertex="1">
          <mxGeometry x="-740" y="527" width="10" height="20" as="geometry" />
        </mxCell>
        <mxCell id="CmVgD65-O8uPmQslicLz-106" value="" style="shape=umlActor;verticalLabelPosition=bottom;verticalAlign=top;html=1;outlineConnect=0;fontSize=11;" parent="1" vertex="1">
          <mxGeometry x="-720" y="527" width="10" height="20" as="geometry" />
        </mxCell>
        <mxCell id="CmVgD65-O8uPmQslicLz-107" value="" style="shape=umlActor;verticalLabelPosition=bottom;verticalAlign=top;html=1;outlineConnect=0;fontSize=11;" parent="1" vertex="1">
          <mxGeometry x="-760" y="527" width="10" height="20" as="geometry" />
        </mxCell>
        <mxCell id="CmVgD65-O8uPmQslicLz-108" value="Business Area 3" style="text;html=1;strokeColor=none;fillColor=none;align=center;verticalAlign=middle;whiteSpace=wrap;rounded=0;fontSize=11;" parent="1" vertex="1">
          <mxGeometry x="-765" y="557" width="60" height="20" as="geometry" />
        </mxCell>
        <mxCell id="CmVgD65-O8uPmQslicLz-109" value="" style="shape=umlActor;verticalLabelPosition=bottom;verticalAlign=top;html=1;outlineConnect=0;fontSize=11;" parent="1" vertex="1">
          <mxGeometry x="-740" y="607" width="10" height="20" as="geometry" />
        </mxCell>
        <mxCell id="CmVgD65-O8uPmQslicLz-110" value="" style="shape=umlActor;verticalLabelPosition=bottom;verticalAlign=top;html=1;outlineConnect=0;fontSize=11;" parent="1" vertex="1">
          <mxGeometry x="-720" y="607" width="10" height="20" as="geometry" />
        </mxCell>
        <mxCell id="CmVgD65-O8uPmQslicLz-111" value="" style="shape=umlActor;verticalLabelPosition=bottom;verticalAlign=top;html=1;outlineConnect=0;fontSize=11;" parent="1" vertex="1">
          <mxGeometry x="-760" y="607" width="10" height="20" as="geometry" />
        </mxCell>
        <mxCell id="CmVgD65-O8uPmQslicLz-112" value="Business Area 4" style="text;html=1;strokeColor=none;fillColor=none;align=center;verticalAlign=middle;whiteSpace=wrap;rounded=0;fontSize=11;" parent="1" vertex="1">
          <mxGeometry x="-765" y="637" width="60" height="20" as="geometry" />
        </mxCell>
        <mxCell id="CmVgD65-O8uPmQslicLz-113" value="Application 1" style="ellipse;whiteSpace=wrap;html=1;aspect=fixed;fontSize=11;fillColor=#dae8fc;strokeColor=#6c8ebf;" parent="1" vertex="1">
          <mxGeometry x="-405" y="360" width="64" height="64" as="geometry" />
        </mxCell>
        <mxCell id="CmVgD65-O8uPmQslicLz-115" value="Application 2" style="ellipse;whiteSpace=wrap;html=1;aspect=fixed;fontSize=11;fillColor=#dae8fc;strokeColor=#6c8ebf;" parent="1" vertex="1">
          <mxGeometry x="-405" y="440" width="64" height="64" as="geometry" />
        </mxCell>
        <mxCell id="CmVgD65-O8uPmQslicLz-117" value="Application 3" style="ellipse;whiteSpace=wrap;html=1;aspect=fixed;fontSize=11;fillColor=#dae8fc;strokeColor=#6c8ebf;" parent="1" vertex="1">
          <mxGeometry x="-405" y="520" width="64" height="64" as="geometry" />
        </mxCell>
        <mxCell id="CmVgD65-O8uPmQslicLz-119" value="Application 4" style="ellipse;whiteSpace=wrap;html=1;aspect=fixed;fontSize=11;fillColor=#dae8fc;strokeColor=#6c8ebf;" parent="1" vertex="1">
          <mxGeometry x="-405" y="600" width="64" height="64" as="geometry" />
        </mxCell>
        <mxCell id="6iWctxKtsx-vq_gi8lbH-7" value="Must collaborate on change" style="rounded=0;whiteSpace=wrap;html=1;dashed=1;" parent="1" vertex="1">
          <mxGeometry x="-200" y="397" width="120" height="60" as="geometry" />
        </mxCell>
        <mxCell id="DyJc1EFnlRKIIAmwIYHC-6" value="" style="endArrow=classic;html=1;exitX=1;exitY=0.5;exitDx=0;exitDy=0;entryX=0.5;entryY=1;entryDx=0;entryDy=0;startArrow=classic;startFill=1;edgeStyle=orthogonalEdgeStyle;curved=1;" parent="1" source="DyJc1EFnlRKIIAmwIYHC-5" target="DyJc1EFnlRKIIAmwIYHC-4" edge="1">
          <mxGeometry width="50" height="50" relative="1" as="geometry">
            <mxPoint x="-430" y="313" as="sourcePoint" />
            <mxPoint x="-380" y="263" as="targetPoint" />
          </mxGeometry>
        </mxCell>
        <mxCell id="P9-t-jY8PYCdQ8GlsWrF-1" value="" style="rounded=0;whiteSpace=wrap;html=1;dashed=1;" vertex="1" parent="1">
          <mxGeometry x="-780" y="1126" width="210" height="73" as="geometry" />
        </mxCell>
        <mxCell id="P9-t-jY8PYCdQ8GlsWrF-2" value="" style="rounded=0;whiteSpace=wrap;html=1;dashed=1;" vertex="1" parent="1">
          <mxGeometry x="-780" y="1046" width="210" height="73" as="geometry" />
        </mxCell>
        <mxCell id="P9-t-jY8PYCdQ8GlsWrF-3" value="" style="rounded=0;whiteSpace=wrap;html=1;dashed=1;" vertex="1" parent="1">
          <mxGeometry x="-780" y="966" width="210" height="73" as="geometry" />
        </mxCell>
        <mxCell id="P9-t-jY8PYCdQ8GlsWrF-4" value="" style="rounded=0;whiteSpace=wrap;html=1;dashed=1;" vertex="1" parent="1">
          <mxGeometry x="-780" y="883" width="210" height="73" as="geometry" />
        </mxCell>
        <mxCell id="P9-t-jY8PYCdQ8GlsWrF-7" style="edgeStyle=none;rounded=0;orthogonalLoop=1;jettySize=auto;html=1;exitX=0;exitY=0.5;exitDx=0;exitDy=0;startArrow=classic;startFill=1;endArrow=none;endFill=0;fontSize=11;" edge="1" parent="1" source="P9-t-jY8PYCdQ8GlsWrF-87">
          <mxGeometry relative="1" as="geometry">
            <mxPoint x="-575" y="1078" as="targetPoint" />
            <mxPoint x="-650" y="1078" as="sourcePoint" />
          </mxGeometry>
        </mxCell>
        <mxCell id="P9-t-jY8PYCdQ8GlsWrF-10" style="edgeStyle=none;rounded=0;orthogonalLoop=1;jettySize=auto;html=1;exitX=0;exitY=0.5;exitDx=0;exitDy=0;startArrow=classic;startFill=1;endArrow=none;endFill=0;fontSize=11;" edge="1" parent="1" source="P9-t-jY8PYCdQ8GlsWrF-88">
          <mxGeometry relative="1" as="geometry">
            <mxPoint x="-575" y="1158" as="targetPoint" />
            <mxPoint x="-650" y="1158" as="sourcePoint" />
          </mxGeometry>
        </mxCell>
        <mxCell id="P9-t-jY8PYCdQ8GlsWrF-17" style="edgeStyle=none;rounded=0;orthogonalLoop=1;jettySize=auto;html=1;exitX=0;exitY=0.5;exitDx=0;exitDy=0;fontSize=11;startArrow=classic;startFill=1;endArrow=none;endFill=0;" edge="1" parent="1" source="P9-t-jY8PYCdQ8GlsWrF-83">
          <mxGeometry relative="1" as="geometry">
            <mxPoint x="-575" y="918" as="targetPoint" />
            <mxPoint x="-650" y="918" as="sourcePoint" />
          </mxGeometry>
        </mxCell>
        <mxCell id="P9-t-jY8PYCdQ8GlsWrF-20" style="edgeStyle=none;rounded=0;orthogonalLoop=1;jettySize=auto;html=1;exitX=0;exitY=0.5;exitDx=0;exitDy=0;startArrow=classic;startFill=1;endArrow=none;endFill=0;fontSize=11;" edge="1" parent="1" source="P9-t-jY8PYCdQ8GlsWrF-84">
          <mxGeometry relative="1" as="geometry">
            <mxPoint x="-575" y="998" as="targetPoint" />
            <mxPoint x="-650" y="998" as="sourcePoint" />
          </mxGeometry>
        </mxCell>
        <mxCell id="P9-t-jY8PYCdQ8GlsWrF-23" value="" style="shape=umlActor;verticalLabelPosition=bottom;verticalAlign=top;html=1;outlineConnect=0;fontSize=11;" vertex="1" parent="1">
          <mxGeometry x="-620" y="973" width="10" height="20" as="geometry" />
        </mxCell>
        <mxCell id="P9-t-jY8PYCdQ8GlsWrF-24" value="" style="shape=umlActor;verticalLabelPosition=bottom;verticalAlign=top;html=1;outlineConnect=0;fontSize=11;" vertex="1" parent="1">
          <mxGeometry x="-600" y="973" width="10" height="20" as="geometry" />
        </mxCell>
        <mxCell id="P9-t-jY8PYCdQ8GlsWrF-25" value="" style="shape=umlActor;verticalLabelPosition=bottom;verticalAlign=top;html=1;outlineConnect=0;fontSize=11;" vertex="1" parent="1">
          <mxGeometry x="-640" y="973" width="10" height="20" as="geometry" />
        </mxCell>
        <mxCell id="P9-t-jY8PYCdQ8GlsWrF-26" value="Development Team 2" style="text;html=1;strokeColor=none;fillColor=none;align=center;verticalAlign=middle;whiteSpace=wrap;rounded=0;fontSize=11;" vertex="1" parent="1">
          <mxGeometry x="-645" y="1003" width="60" height="20" as="geometry" />
        </mxCell>
        <mxCell id="P9-t-jY8PYCdQ8GlsWrF-27" value="" style="shape=umlActor;verticalLabelPosition=bottom;verticalAlign=top;html=1;outlineConnect=0;fontSize=11;" vertex="1" parent="1">
          <mxGeometry x="-620" y="893" width="10" height="20" as="geometry" />
        </mxCell>
        <mxCell id="P9-t-jY8PYCdQ8GlsWrF-28" value="" style="shape=umlActor;verticalLabelPosition=bottom;verticalAlign=top;html=1;outlineConnect=0;fontSize=11;" vertex="1" parent="1">
          <mxGeometry x="-600" y="893" width="10" height="20" as="geometry" />
        </mxCell>
        <mxCell id="P9-t-jY8PYCdQ8GlsWrF-29" value="" style="shape=umlActor;verticalLabelPosition=bottom;verticalAlign=top;html=1;outlineConnect=0;fontSize=11;" vertex="1" parent="1">
          <mxGeometry x="-640" y="893" width="10" height="20" as="geometry" />
        </mxCell>
        <mxCell id="P9-t-jY8PYCdQ8GlsWrF-30" value="Development Team 1" style="text;html=1;strokeColor=none;fillColor=none;align=center;verticalAlign=middle;whiteSpace=wrap;rounded=0;fontSize=11;" vertex="1" parent="1">
          <mxGeometry x="-645" y="923" width="60" height="20" as="geometry" />
        </mxCell>
        <mxCell id="P9-t-jY8PYCdQ8GlsWrF-31" value="" style="shape=umlActor;verticalLabelPosition=bottom;verticalAlign=top;html=1;outlineConnect=0;fontSize=11;" vertex="1" parent="1">
          <mxGeometry x="-620" y="1053" width="10" height="20" as="geometry" />
        </mxCell>
        <mxCell id="P9-t-jY8PYCdQ8GlsWrF-32" value="" style="shape=umlActor;verticalLabelPosition=bottom;verticalAlign=top;html=1;outlineConnect=0;fontSize=11;" vertex="1" parent="1">
          <mxGeometry x="-600" y="1053" width="10" height="20" as="geometry" />
        </mxCell>
        <mxCell id="P9-t-jY8PYCdQ8GlsWrF-33" value="" style="shape=umlActor;verticalLabelPosition=bottom;verticalAlign=top;html=1;outlineConnect=0;fontSize=11;" vertex="1" parent="1">
          <mxGeometry x="-640" y="1053" width="10" height="20" as="geometry" />
        </mxCell>
        <mxCell id="P9-t-jY8PYCdQ8GlsWrF-34" value="Development Team 3" style="text;html=1;strokeColor=none;fillColor=none;align=center;verticalAlign=middle;whiteSpace=wrap;rounded=0;fontSize=11;" vertex="1" parent="1">
          <mxGeometry x="-645" y="1083" width="60" height="20" as="geometry" />
        </mxCell>
        <mxCell id="P9-t-jY8PYCdQ8GlsWrF-35" value="" style="shape=umlActor;verticalLabelPosition=bottom;verticalAlign=top;html=1;outlineConnect=0;fontSize=11;" vertex="1" parent="1">
          <mxGeometry x="-620" y="1133" width="10" height="20" as="geometry" />
        </mxCell>
        <mxCell id="P9-t-jY8PYCdQ8GlsWrF-36" value="" style="shape=umlActor;verticalLabelPosition=bottom;verticalAlign=top;html=1;outlineConnect=0;fontSize=11;" vertex="1" parent="1">
          <mxGeometry x="-600" y="1133" width="10" height="20" as="geometry" />
        </mxCell>
        <mxCell id="P9-t-jY8PYCdQ8GlsWrF-37" value="" style="shape=umlActor;verticalLabelPosition=bottom;verticalAlign=top;html=1;outlineConnect=0;fontSize=11;" vertex="1" parent="1">
          <mxGeometry x="-640" y="1133" width="10" height="20" as="geometry" />
        </mxCell>
        <mxCell id="P9-t-jY8PYCdQ8GlsWrF-38" value="Development Team 4" style="text;html=1;strokeColor=none;fillColor=none;align=center;verticalAlign=middle;whiteSpace=wrap;rounded=0;fontSize=11;" vertex="1" parent="1">
          <mxGeometry x="-645" y="1163" width="60" height="20" as="geometry" />
        </mxCell>
        <mxCell id="P9-t-jY8PYCdQ8GlsWrF-39" style="edgeStyle=none;rounded=0;orthogonalLoop=1;jettySize=auto;html=1;exitX=0;exitY=0.5;exitDx=0;exitDy=0;startArrow=classic;startFill=1;endArrow=none;endFill=0;fontSize=11;" edge="1" parent="1">
          <mxGeometry relative="1" as="geometry">
            <mxPoint x="-695" y="1078" as="targetPoint" />
            <mxPoint x="-655" y="1078" as="sourcePoint" />
          </mxGeometry>
        </mxCell>
        <mxCell id="P9-t-jY8PYCdQ8GlsWrF-40" style="edgeStyle=none;rounded=0;orthogonalLoop=1;jettySize=auto;html=1;exitX=0;exitY=0.5;exitDx=0;exitDy=0;startArrow=classic;startFill=1;endArrow=none;endFill=0;fontSize=11;" edge="1" parent="1">
          <mxGeometry relative="1" as="geometry">
            <mxPoint x="-695" y="1158" as="targetPoint" />
            <mxPoint x="-655" y="1158" as="sourcePoint" />
          </mxGeometry>
        </mxCell>
        <mxCell id="P9-t-jY8PYCdQ8GlsWrF-41" style="edgeStyle=none;rounded=0;orthogonalLoop=1;jettySize=auto;html=1;exitX=0;exitY=0.5;exitDx=0;exitDy=0;fontSize=11;startArrow=classic;startFill=1;endArrow=none;endFill=0;" edge="1" parent="1">
          <mxGeometry relative="1" as="geometry">
            <mxPoint x="-695" y="918" as="targetPoint" />
            <mxPoint x="-655" y="918" as="sourcePoint" />
          </mxGeometry>
        </mxCell>
        <mxCell id="P9-t-jY8PYCdQ8GlsWrF-42" style="edgeStyle=none;rounded=0;orthogonalLoop=1;jettySize=auto;html=1;exitX=0;exitY=0.5;exitDx=0;exitDy=0;startArrow=classic;startFill=1;endArrow=none;endFill=0;fontSize=11;" edge="1" parent="1">
          <mxGeometry relative="1" as="geometry">
            <mxPoint x="-695" y="998" as="targetPoint" />
            <mxPoint x="-655" y="998" as="sourcePoint" />
          </mxGeometry>
        </mxCell>
        <mxCell id="P9-t-jY8PYCdQ8GlsWrF-43" value="" style="shape=umlActor;verticalLabelPosition=bottom;verticalAlign=top;html=1;outlineConnect=0;fontSize=11;" vertex="1" parent="1">
          <mxGeometry x="-740" y="973" width="10" height="20" as="geometry" />
        </mxCell>
        <mxCell id="P9-t-jY8PYCdQ8GlsWrF-44" value="" style="shape=umlActor;verticalLabelPosition=bottom;verticalAlign=top;html=1;outlineConnect=0;fontSize=11;" vertex="1" parent="1">
          <mxGeometry x="-720" y="973" width="10" height="20" as="geometry" />
        </mxCell>
        <mxCell id="P9-t-jY8PYCdQ8GlsWrF-45" value="" style="shape=umlActor;verticalLabelPosition=bottom;verticalAlign=top;html=1;outlineConnect=0;fontSize=11;" vertex="1" parent="1">
          <mxGeometry x="-760" y="973" width="10" height="20" as="geometry" />
        </mxCell>
        <mxCell id="P9-t-jY8PYCdQ8GlsWrF-46" value="Business Area 2" style="text;html=1;strokeColor=none;fillColor=none;align=center;verticalAlign=middle;whiteSpace=wrap;rounded=0;fontSize=11;" vertex="1" parent="1">
          <mxGeometry x="-765" y="1003" width="60" height="20" as="geometry" />
        </mxCell>
        <mxCell id="P9-t-jY8PYCdQ8GlsWrF-47" value="" style="shape=umlActor;verticalLabelPosition=bottom;verticalAlign=top;html=1;outlineConnect=0;fontSize=11;" vertex="1" parent="1">
          <mxGeometry x="-740" y="893" width="10" height="20" as="geometry" />
        </mxCell>
        <mxCell id="P9-t-jY8PYCdQ8GlsWrF-48" value="" style="shape=umlActor;verticalLabelPosition=bottom;verticalAlign=top;html=1;outlineConnect=0;fontSize=11;" vertex="1" parent="1">
          <mxGeometry x="-720" y="893" width="10" height="20" as="geometry" />
        </mxCell>
        <mxCell id="P9-t-jY8PYCdQ8GlsWrF-49" value="" style="shape=umlActor;verticalLabelPosition=bottom;verticalAlign=top;html=1;outlineConnect=0;fontSize=11;" vertex="1" parent="1">
          <mxGeometry x="-760" y="893" width="10" height="20" as="geometry" />
        </mxCell>
        <mxCell id="P9-t-jY8PYCdQ8GlsWrF-50" value="Business Area 1" style="text;html=1;strokeColor=none;fillColor=none;align=center;verticalAlign=middle;whiteSpace=wrap;rounded=0;fontSize=11;" vertex="1" parent="1">
          <mxGeometry x="-765" y="923" width="60" height="20" as="geometry" />
        </mxCell>
        <mxCell id="P9-t-jY8PYCdQ8GlsWrF-51" value="" style="shape=umlActor;verticalLabelPosition=bottom;verticalAlign=top;html=1;outlineConnect=0;fontSize=11;" vertex="1" parent="1">
          <mxGeometry x="-740" y="1053" width="10" height="20" as="geometry" />
        </mxCell>
        <mxCell id="P9-t-jY8PYCdQ8GlsWrF-52" value="" style="shape=umlActor;verticalLabelPosition=bottom;verticalAlign=top;html=1;outlineConnect=0;fontSize=11;" vertex="1" parent="1">
          <mxGeometry x="-720" y="1053" width="10" height="20" as="geometry" />
        </mxCell>
        <mxCell id="P9-t-jY8PYCdQ8GlsWrF-53" value="" style="shape=umlActor;verticalLabelPosition=bottom;verticalAlign=top;html=1;outlineConnect=0;fontSize=11;" vertex="1" parent="1">
          <mxGeometry x="-760" y="1053" width="10" height="20" as="geometry" />
        </mxCell>
        <mxCell id="P9-t-jY8PYCdQ8GlsWrF-54" value="Business Area 3" style="text;html=1;strokeColor=none;fillColor=none;align=center;verticalAlign=middle;whiteSpace=wrap;rounded=0;fontSize=11;" vertex="1" parent="1">
          <mxGeometry x="-765" y="1083" width="60" height="20" as="geometry" />
        </mxCell>
        <mxCell id="P9-t-jY8PYCdQ8GlsWrF-55" value="" style="shape=umlActor;verticalLabelPosition=bottom;verticalAlign=top;html=1;outlineConnect=0;fontSize=11;" vertex="1" parent="1">
          <mxGeometry x="-740" y="1133" width="10" height="20" as="geometry" />
        </mxCell>
        <mxCell id="P9-t-jY8PYCdQ8GlsWrF-56" value="" style="shape=umlActor;verticalLabelPosition=bottom;verticalAlign=top;html=1;outlineConnect=0;fontSize=11;" vertex="1" parent="1">
          <mxGeometry x="-720" y="1133" width="10" height="20" as="geometry" />
        </mxCell>
        <mxCell id="P9-t-jY8PYCdQ8GlsWrF-57" value="" style="shape=umlActor;verticalLabelPosition=bottom;verticalAlign=top;html=1;outlineConnect=0;fontSize=11;" vertex="1" parent="1">
          <mxGeometry x="-760" y="1133" width="10" height="20" as="geometry" />
        </mxCell>
        <mxCell id="P9-t-jY8PYCdQ8GlsWrF-58" value="Business Area 4" style="text;html=1;strokeColor=none;fillColor=none;align=center;verticalAlign=middle;whiteSpace=wrap;rounded=0;fontSize=11;" vertex="1" parent="1">
          <mxGeometry x="-765" y="1163" width="60" height="20" as="geometry" />
        </mxCell>
        <mxCell id="P9-t-jY8PYCdQ8GlsWrF-68" style="edgeStyle=orthogonalEdgeStyle;rounded=0;orthogonalLoop=1;jettySize=auto;html=1;curved=1;" edge="1" parent="1" source="P9-t-jY8PYCdQ8GlsWrF-59" target="P9-t-jY8PYCdQ8GlsWrF-67">
          <mxGeometry relative="1" as="geometry" />
        </mxCell>
        <mxCell id="P9-t-jY8PYCdQ8GlsWrF-59" value="Application 1" style="ellipse;whiteSpace=wrap;html=1;aspect=fixed;fontSize=11;fillColor=#dae8fc;strokeColor=#6c8ebf;" vertex="1" parent="1">
          <mxGeometry x="-520" y="886" width="64" height="64" as="geometry" />
        </mxCell>
        <mxCell id="P9-t-jY8PYCdQ8GlsWrF-72" style="edgeStyle=orthogonalEdgeStyle;curved=1;rounded=0;orthogonalLoop=1;jettySize=auto;html=1;entryX=0;entryY=0.5;entryDx=0;entryDy=0;" edge="1" parent="1" source="P9-t-jY8PYCdQ8GlsWrF-60" target="P9-t-jY8PYCdQ8GlsWrF-67">
          <mxGeometry relative="1" as="geometry" />
        </mxCell>
        <mxCell id="P9-t-jY8PYCdQ8GlsWrF-60" value="Application 2" style="ellipse;whiteSpace=wrap;html=1;aspect=fixed;fontSize=11;fillColor=#dae8fc;strokeColor=#6c8ebf;" vertex="1" parent="1">
          <mxGeometry x="-520" y="966" width="64" height="64" as="geometry" />
        </mxCell>
        <mxCell id="P9-t-jY8PYCdQ8GlsWrF-70" style="edgeStyle=orthogonalEdgeStyle;curved=1;rounded=0;orthogonalLoop=1;jettySize=auto;html=1;entryX=0;entryY=0.5;entryDx=0;entryDy=0;" edge="1" parent="1" source="P9-t-jY8PYCdQ8GlsWrF-61" target="P9-t-jY8PYCdQ8GlsWrF-67">
          <mxGeometry relative="1" as="geometry" />
        </mxCell>
        <mxCell id="P9-t-jY8PYCdQ8GlsWrF-61" value="Application 3" style="ellipse;whiteSpace=wrap;html=1;aspect=fixed;fontSize=11;fillColor=#dae8fc;strokeColor=#6c8ebf;" vertex="1" parent="1">
          <mxGeometry x="-520" y="1046" width="64" height="64" as="geometry" />
        </mxCell>
        <mxCell id="P9-t-jY8PYCdQ8GlsWrF-69" style="edgeStyle=orthogonalEdgeStyle;curved=1;rounded=0;orthogonalLoop=1;jettySize=auto;html=1;" edge="1" parent="1" source="P9-t-jY8PYCdQ8GlsWrF-62">
          <mxGeometry relative="1" as="geometry">
            <mxPoint x="-355" y="1073" as="targetPoint" />
          </mxGeometry>
        </mxCell>
        <mxCell id="P9-t-jY8PYCdQ8GlsWrF-62" value="Application 4" style="ellipse;whiteSpace=wrap;html=1;aspect=fixed;fontSize=11;fillColor=#dae8fc;strokeColor=#6c8ebf;" vertex="1" parent="1">
          <mxGeometry x="-520" y="1126" width="64" height="64" as="geometry" />
        </mxCell>
        <mxCell id="P9-t-jY8PYCdQ8GlsWrF-67" value="Release" style="ellipse;whiteSpace=wrap;html=1;aspect=fixed;fillColor=#f8cecc;strokeColor=#b85450;" vertex="1" parent="1">
          <mxGeometry x="-395" y="991.5" width="80" height="80" as="geometry" />
        </mxCell>
        <mxCell id="P9-t-jY8PYCdQ8GlsWrF-73" value="Application 1" style="ellipse;whiteSpace=wrap;html=1;aspect=fixed;fontSize=11;fillColor=#e1d5e7;strokeColor=#9673a6;" vertex="1" parent="1">
          <mxGeometry x="-193" y="871" width="64" height="64" as="geometry" />
        </mxCell>
        <mxCell id="P9-t-jY8PYCdQ8GlsWrF-74" value="Application 2" style="ellipse;whiteSpace=wrap;html=1;aspect=fixed;fontSize=11;fillColor=#e1d5e7;strokeColor=#9673a6;" vertex="1" parent="1">
          <mxGeometry x="-83" y="871" width="64" height="64" as="geometry" />
        </mxCell>
        <mxCell id="P9-t-jY8PYCdQ8GlsWrF-75" value="Application 3" style="ellipse;whiteSpace=wrap;html=1;aspect=fixed;fontSize=11;fillColor=#e1d5e7;strokeColor=#9673a6;" vertex="1" parent="1">
          <mxGeometry x="-193" y="955" width="64" height="64" as="geometry" />
        </mxCell>
        <mxCell id="P9-t-jY8PYCdQ8GlsWrF-76" value="Application 4" style="ellipse;whiteSpace=wrap;html=1;aspect=fixed;fontSize=11;fillColor=#e1d5e7;strokeColor=#9673a6;" vertex="1" parent="1">
          <mxGeometry x="-83" y="955" width="64" height="64" as="geometry" />
        </mxCell>
        <mxCell id="P9-t-jY8PYCdQ8GlsWrF-77" value="Environment 2 (Blue)" style="rounded=1;whiteSpace=wrap;html=1;verticalAlign=top;fillColor=#dae8fc;strokeColor=#6c8ebf;" vertex="1" parent="1">
          <mxGeometry x="-215" y="1039" width="216" height="200" as="geometry" />
        </mxCell>
        <mxCell id="P9-t-jY8PYCdQ8GlsWrF-78" value="Application 1" style="ellipse;whiteSpace=wrap;html=1;aspect=fixed;fontSize=11;fillColor=#e1d5e7;strokeColor=#9673a6;" vertex="1" parent="1">
          <mxGeometry x="-193" y="1080" width="64" height="64" as="geometry" />
        </mxCell>
        <mxCell id="P9-t-jY8PYCdQ8GlsWrF-79" value="Application 2" style="ellipse;whiteSpace=wrap;html=1;aspect=fixed;fontSize=11;fillColor=#e1d5e7;strokeColor=#9673a6;" vertex="1" parent="1">
          <mxGeometry x="-83" y="1080" width="64" height="64" as="geometry" />
        </mxCell>
        <mxCell id="P9-t-jY8PYCdQ8GlsWrF-80" value="Application 3" style="ellipse;whiteSpace=wrap;html=1;aspect=fixed;fontSize=11;fillColor=#e1d5e7;strokeColor=#9673a6;" vertex="1" parent="1">
          <mxGeometry x="-193" y="1164" width="64" height="64" as="geometry" />
        </mxCell>
        <mxCell id="P9-t-jY8PYCdQ8GlsWrF-81" value="Application 4" style="ellipse;whiteSpace=wrap;html=1;aspect=fixed;fontSize=11;fillColor=#e1d5e7;strokeColor=#9673a6;" vertex="1" parent="1">
          <mxGeometry x="-83" y="1164" width="64" height="64" as="geometry" />
        </mxCell>
        <mxCell id="P9-t-jY8PYCdQ8GlsWrF-83" value="Application 1" style="ellipse;whiteSpace=wrap;html=1;aspect=fixed;fontSize=11;fillColor=#e1d5e7;strokeColor=#9673a6;" vertex="1" parent="1">
          <mxGeometry x="-520" y="886" width="64" height="64" as="geometry" />
        </mxCell>
        <mxCell id="P9-t-jY8PYCdQ8GlsWrF-84" value="Application 2" style="ellipse;whiteSpace=wrap;html=1;aspect=fixed;fontSize=11;fillColor=#e1d5e7;strokeColor=#9673a6;" vertex="1" parent="1">
          <mxGeometry x="-520" y="966" width="64" height="64" as="geometry" />
        </mxCell>
        <mxCell id="P9-t-jY8PYCdQ8GlsWrF-87" value="Application 3" style="ellipse;whiteSpace=wrap;html=1;aspect=fixed;fontSize=11;fillColor=#e1d5e7;strokeColor=#9673a6;" vertex="1" parent="1">
          <mxGeometry x="-520" y="1046" width="64" height="64" as="geometry" />
        </mxCell>
        <mxCell id="P9-t-jY8PYCdQ8GlsWrF-88" value="Application 4" style="ellipse;whiteSpace=wrap;html=1;aspect=fixed;fontSize=11;fillColor=#e1d5e7;strokeColor=#9673a6;" vertex="1" parent="1">
          <mxGeometry x="-520" y="1126" width="64" height="64" as="geometry" />
        </mxCell>
        <mxCell id="P9-t-jY8PYCdQ8GlsWrF-122" value="" style="shape=flexArrow;endArrow=classic;html=1;exitX=1;exitY=0.5;exitDx=0;exitDy=0;entryX=0;entryY=0.5;entryDx=0;entryDy=0;edgeStyle=entityRelationEdgeStyle;" edge="1" parent="1" source="P9-t-jY8PYCdQ8GlsWrF-67" target="P9-t-jY8PYCdQ8GlsWrF-77">
          <mxGeometry width="50" height="50" relative="1" as="geometry">
            <mxPoint x="-295" y="1073" as="sourcePoint" />
            <mxPoint x="-245" y="1023" as="targetPoint" />
          </mxGeometry>
        </mxCell>
        <mxCell id="P9-t-jY8PYCdQ8GlsWrF-123" value="" style="shape=umlActor;verticalLabelPosition=bottom;verticalAlign=top;html=1;outlineConnect=0;fontSize=11;" vertex="1" parent="1">
          <mxGeometry x="85" y="898" width="10" height="20" as="geometry" />
        </mxCell>
        <mxCell id="P9-t-jY8PYCdQ8GlsWrF-124" value="" style="shape=umlActor;verticalLabelPosition=bottom;verticalAlign=top;html=1;outlineConnect=0;fontSize=11;" vertex="1" parent="1">
          <mxGeometry x="97" y="898" width="10" height="20" as="geometry" />
        </mxCell>
        <mxCell id="P9-t-jY8PYCdQ8GlsWrF-125" value="" style="shape=umlActor;verticalLabelPosition=bottom;verticalAlign=top;html=1;outlineConnect=0;fontSize=11;" vertex="1" parent="1">
          <mxGeometry x="109" y="898" width="10" height="20" as="geometry" />
        </mxCell>
        <mxCell id="P9-t-jY8PYCdQ8GlsWrF-126" value="Users" style="text;html=1;strokeColor=none;fillColor=none;align=center;verticalAlign=middle;whiteSpace=wrap;rounded=0;fontSize=11;" vertex="1" parent="1">
          <mxGeometry x="72" y="925" width="60" height="20" as="geometry" />
        </mxCell>
        <mxCell id="P9-t-jY8PYCdQ8GlsWrF-128" value="" style="endArrow=classic;html=1;exitX=0;exitY=0.25;exitDx=0;exitDy=0;entryX=1;entryY=0.5;entryDx=0;entryDy=0;" edge="1" parent="1" source="P9-t-jY8PYCdQ8GlsWrF-126" target="P9-t-jY8PYCdQ8GlsWrF-63">
          <mxGeometry width="50" height="50" relative="1" as="geometry">
            <mxPoint x="-295" y="1083" as="sourcePoint" />
            <mxPoint x="-245" y="1033" as="targetPoint" />
          </mxGeometry>
        </mxCell>
        <mxCell id="P9-t-jY8PYCdQ8GlsWrF-134" value="Individual applications are tightly coupled and a change to one business capability requires testing of all applications together" style="text;html=1;strokeColor=none;fillColor=none;align=left;verticalAlign=middle;whiteSpace=wrap;rounded=0;" vertex="1" parent="1">
          <mxGeometry x="-688" y="801" width="213" height="70" as="geometry" />
        </mxCell>
        <mxCell id="P9-t-jY8PYCdQ8GlsWrF-135" value="Applications are packaged into a single release to be deployed in entirety together.&amp;nbsp; Due to testing effort and risk of redeploying everything, releases tend to be slow and include several changes" style="text;html=1;strokeColor=none;fillColor=none;align=left;verticalAlign=middle;whiteSpace=wrap;rounded=0;" vertex="1" parent="1">
          <mxGeometry x="-435" y="830" width="213" height="70" as="geometry" />
        </mxCell>
        <mxCell id="P9-t-jY8PYCdQ8GlsWrF-136" value="All applications deployed together into a new environment which is not used by users" style="text;html=1;strokeColor=none;fillColor=none;align=left;verticalAlign=middle;whiteSpace=wrap;rounded=0;" vertex="1" parent="1">
          <mxGeometry x="-443" y="1183" width="213" height="70" as="geometry" />
        </mxCell>
        <mxCell id="P9-t-jY8PYCdQ8GlsWrF-137" value="Once deployment complete traffic is switched so users are redirected to new environment." style="text;html=1;strokeColor=none;fillColor=none;align=left;verticalAlign=middle;whiteSpace=wrap;rounded=0;" vertex="1" parent="1">
          <mxGeometry x="60.5" y="960" width="213" height="70" as="geometry" />
        </mxCell>
        <mxCell id="P9-t-jY8PYCdQ8GlsWrF-138" value="1" style="ellipse;whiteSpace=wrap;html=1;aspect=fixed;strokeWidth=2;fontFamily=Tahoma;spacingBottom=4;spacingRight=2;strokeColor=#d3d3d3;align=center;" vertex="1" parent="1">
          <mxGeometry x="-715" y="826" width="20" height="20" as="geometry" />
        </mxCell>
        <mxCell id="P9-t-jY8PYCdQ8GlsWrF-139" value="2" style="ellipse;whiteSpace=wrap;html=1;aspect=fixed;strokeWidth=2;fontFamily=Tahoma;spacingBottom=4;spacingRight=2;strokeColor=#d3d3d3;align=center;" vertex="1" parent="1">
          <mxGeometry x="-465" y="855" width="20" height="20" as="geometry" />
        </mxCell>
        <mxCell id="P9-t-jY8PYCdQ8GlsWrF-140" value="3" style="ellipse;whiteSpace=wrap;html=1;aspect=fixed;strokeWidth=2;fontFamily=Tahoma;spacingBottom=4;spacingRight=2;strokeColor=#d3d3d3;align=center;" vertex="1" parent="1">
          <mxGeometry x="-465" y="1208" width="20" height="20" as="geometry" />
        </mxCell>
        <mxCell id="P9-t-jY8PYCdQ8GlsWrF-141" value="4" style="ellipse;whiteSpace=wrap;html=1;aspect=fixed;strokeWidth=2;fontFamily=Tahoma;spacingBottom=4;spacingRight=2;strokeColor=#d3d3d3;align=center;" vertex="1" parent="1">
          <mxGeometry x="32" y="983" width="20" height="20" as="geometry" />
        </mxCell>
        <mxCell id="P9-t-jY8PYCdQ8GlsWrF-142" value="Environment" style="rounded=1;whiteSpace=wrap;html=1;verticalAlign=top;" vertex="1" parent="1">
          <mxGeometry x="-285" y="1305" width="216" height="391" as="geometry" />
        </mxCell>
        <mxCell id="P9-t-jY8PYCdQ8GlsWrF-143" value="" style="rounded=0;whiteSpace=wrap;html=1;dashed=1;" vertex="1" parent="1">
          <mxGeometry x="-780" y="1605" width="210" height="73" as="geometry" />
        </mxCell>
        <mxCell id="P9-t-jY8PYCdQ8GlsWrF-144" value="" style="rounded=0;whiteSpace=wrap;html=1;dashed=1;" vertex="1" parent="1">
          <mxGeometry x="-780" y="1525" width="210" height="73" as="geometry" />
        </mxCell>
        <mxCell id="P9-t-jY8PYCdQ8GlsWrF-145" value="" style="rounded=0;whiteSpace=wrap;html=1;dashed=1;" vertex="1" parent="1">
          <mxGeometry x="-780" y="1445" width="210" height="73" as="geometry" />
        </mxCell>
        <mxCell id="P9-t-jY8PYCdQ8GlsWrF-146" value="" style="rounded=0;whiteSpace=wrap;html=1;dashed=1;" vertex="1" parent="1">
          <mxGeometry x="-780" y="1362" width="210" height="73" as="geometry" />
        </mxCell>
        <mxCell id="P9-t-jY8PYCdQ8GlsWrF-147" style="edgeStyle=none;rounded=0;orthogonalLoop=1;jettySize=auto;html=1;exitX=0;exitY=0.5;exitDx=0;exitDy=0;startArrow=classic;startFill=1;endArrow=none;endFill=0;fontSize=11;" edge="1" parent="1" source="P9-t-jY8PYCdQ8GlsWrF-207">
          <mxGeometry relative="1" as="geometry">
            <mxPoint x="-575" y="1557" as="targetPoint" />
            <mxPoint x="-650" y="1557" as="sourcePoint" />
          </mxGeometry>
        </mxCell>
        <mxCell id="P9-t-jY8PYCdQ8GlsWrF-148" style="edgeStyle=none;rounded=0;orthogonalLoop=1;jettySize=auto;html=1;exitX=0;exitY=0.5;exitDx=0;exitDy=0;startArrow=classic;startFill=1;endArrow=none;endFill=0;fontSize=11;" edge="1" parent="1" source="P9-t-jY8PYCdQ8GlsWrF-208">
          <mxGeometry relative="1" as="geometry">
            <mxPoint x="-575" y="1637" as="targetPoint" />
            <mxPoint x="-650" y="1637" as="sourcePoint" />
          </mxGeometry>
        </mxCell>
        <mxCell id="P9-t-jY8PYCdQ8GlsWrF-149" style="edgeStyle=none;rounded=0;orthogonalLoop=1;jettySize=auto;html=1;exitX=0;exitY=0.5;exitDx=0;exitDy=0;fontSize=11;startArrow=classic;startFill=1;endArrow=none;endFill=0;" edge="1" parent="1" source="P9-t-jY8PYCdQ8GlsWrF-205">
          <mxGeometry relative="1" as="geometry">
            <mxPoint x="-575" y="1397" as="targetPoint" />
            <mxPoint x="-650" y="1397" as="sourcePoint" />
          </mxGeometry>
        </mxCell>
        <mxCell id="P9-t-jY8PYCdQ8GlsWrF-150" style="edgeStyle=none;rounded=0;orthogonalLoop=1;jettySize=auto;html=1;exitX=0;exitY=0.5;exitDx=0;exitDy=0;startArrow=classic;startFill=1;endArrow=none;endFill=0;fontSize=11;" edge="1" parent="1" source="P9-t-jY8PYCdQ8GlsWrF-206">
          <mxGeometry relative="1" as="geometry">
            <mxPoint x="-575" y="1477" as="targetPoint" />
            <mxPoint x="-650" y="1477" as="sourcePoint" />
          </mxGeometry>
        </mxCell>
        <mxCell id="P9-t-jY8PYCdQ8GlsWrF-151" value="" style="shape=umlActor;verticalLabelPosition=bottom;verticalAlign=top;html=1;outlineConnect=0;fontSize=11;" vertex="1" parent="1">
          <mxGeometry x="-620" y="1452" width="10" height="20" as="geometry" />
        </mxCell>
        <mxCell id="P9-t-jY8PYCdQ8GlsWrF-152" value="" style="shape=umlActor;verticalLabelPosition=bottom;verticalAlign=top;html=1;outlineConnect=0;fontSize=11;" vertex="1" parent="1">
          <mxGeometry x="-600" y="1452" width="10" height="20" as="geometry" />
        </mxCell>
        <mxCell id="P9-t-jY8PYCdQ8GlsWrF-153" value="" style="shape=umlActor;verticalLabelPosition=bottom;verticalAlign=top;html=1;outlineConnect=0;fontSize=11;" vertex="1" parent="1">
          <mxGeometry x="-640" y="1452" width="10" height="20" as="geometry" />
        </mxCell>
        <mxCell id="P9-t-jY8PYCdQ8GlsWrF-154" value="Development Team 2" style="text;html=1;strokeColor=none;fillColor=none;align=center;verticalAlign=middle;whiteSpace=wrap;rounded=0;fontSize=11;" vertex="1" parent="1">
          <mxGeometry x="-645" y="1482" width="60" height="20" as="geometry" />
        </mxCell>
        <mxCell id="P9-t-jY8PYCdQ8GlsWrF-155" value="" style="shape=umlActor;verticalLabelPosition=bottom;verticalAlign=top;html=1;outlineConnect=0;fontSize=11;" vertex="1" parent="1">
          <mxGeometry x="-620" y="1372" width="10" height="20" as="geometry" />
        </mxCell>
        <mxCell id="P9-t-jY8PYCdQ8GlsWrF-156" value="" style="shape=umlActor;verticalLabelPosition=bottom;verticalAlign=top;html=1;outlineConnect=0;fontSize=11;" vertex="1" parent="1">
          <mxGeometry x="-600" y="1372" width="10" height="20" as="geometry" />
        </mxCell>
        <mxCell id="P9-t-jY8PYCdQ8GlsWrF-157" value="" style="shape=umlActor;verticalLabelPosition=bottom;verticalAlign=top;html=1;outlineConnect=0;fontSize=11;" vertex="1" parent="1">
          <mxGeometry x="-640" y="1372" width="10" height="20" as="geometry" />
        </mxCell>
        <mxCell id="P9-t-jY8PYCdQ8GlsWrF-158" value="Development Team 1" style="text;html=1;strokeColor=none;fillColor=none;align=center;verticalAlign=middle;whiteSpace=wrap;rounded=0;fontSize=11;" vertex="1" parent="1">
          <mxGeometry x="-645" y="1402" width="60" height="20" as="geometry" />
        </mxCell>
        <mxCell id="P9-t-jY8PYCdQ8GlsWrF-159" value="" style="shape=umlActor;verticalLabelPosition=bottom;verticalAlign=top;html=1;outlineConnect=0;fontSize=11;" vertex="1" parent="1">
          <mxGeometry x="-620" y="1532" width="10" height="20" as="geometry" />
        </mxCell>
        <mxCell id="P9-t-jY8PYCdQ8GlsWrF-160" value="" style="shape=umlActor;verticalLabelPosition=bottom;verticalAlign=top;html=1;outlineConnect=0;fontSize=11;" vertex="1" parent="1">
          <mxGeometry x="-600" y="1532" width="10" height="20" as="geometry" />
        </mxCell>
        <mxCell id="P9-t-jY8PYCdQ8GlsWrF-161" value="" style="shape=umlActor;verticalLabelPosition=bottom;verticalAlign=top;html=1;outlineConnect=0;fontSize=11;" vertex="1" parent="1">
          <mxGeometry x="-640" y="1532" width="10" height="20" as="geometry" />
        </mxCell>
        <mxCell id="P9-t-jY8PYCdQ8GlsWrF-162" value="Development Team 3" style="text;html=1;strokeColor=none;fillColor=none;align=center;verticalAlign=middle;whiteSpace=wrap;rounded=0;fontSize=11;" vertex="1" parent="1">
          <mxGeometry x="-645" y="1562" width="60" height="20" as="geometry" />
        </mxCell>
        <mxCell id="P9-t-jY8PYCdQ8GlsWrF-163" value="" style="shape=umlActor;verticalLabelPosition=bottom;verticalAlign=top;html=1;outlineConnect=0;fontSize=11;" vertex="1" parent="1">
          <mxGeometry x="-620" y="1612" width="10" height="20" as="geometry" />
        </mxCell>
        <mxCell id="P9-t-jY8PYCdQ8GlsWrF-164" value="" style="shape=umlActor;verticalLabelPosition=bottom;verticalAlign=top;html=1;outlineConnect=0;fontSize=11;" vertex="1" parent="1">
          <mxGeometry x="-600" y="1612" width="10" height="20" as="geometry" />
        </mxCell>
        <mxCell id="P9-t-jY8PYCdQ8GlsWrF-165" value="" style="shape=umlActor;verticalLabelPosition=bottom;verticalAlign=top;html=1;outlineConnect=0;fontSize=11;" vertex="1" parent="1">
          <mxGeometry x="-640" y="1612" width="10" height="20" as="geometry" />
        </mxCell>
        <mxCell id="P9-t-jY8PYCdQ8GlsWrF-166" value="Development Team 4" style="text;html=1;strokeColor=none;fillColor=none;align=center;verticalAlign=middle;whiteSpace=wrap;rounded=0;fontSize=11;" vertex="1" parent="1">
          <mxGeometry x="-645" y="1642" width="60" height="20" as="geometry" />
        </mxCell>
        <mxCell id="P9-t-jY8PYCdQ8GlsWrF-167" style="edgeStyle=none;rounded=0;orthogonalLoop=1;jettySize=auto;html=1;exitX=0;exitY=0.5;exitDx=0;exitDy=0;startArrow=classic;startFill=1;endArrow=none;endFill=0;fontSize=11;" edge="1" parent="1">
          <mxGeometry relative="1" as="geometry">
            <mxPoint x="-695" y="1557" as="targetPoint" />
            <mxPoint x="-655" y="1557" as="sourcePoint" />
          </mxGeometry>
        </mxCell>
        <mxCell id="P9-t-jY8PYCdQ8GlsWrF-168" style="edgeStyle=none;rounded=0;orthogonalLoop=1;jettySize=auto;html=1;exitX=0;exitY=0.5;exitDx=0;exitDy=0;startArrow=classic;startFill=1;endArrow=none;endFill=0;fontSize=11;" edge="1" parent="1">
          <mxGeometry relative="1" as="geometry">
            <mxPoint x="-695" y="1637" as="targetPoint" />
            <mxPoint x="-655" y="1637" as="sourcePoint" />
          </mxGeometry>
        </mxCell>
        <mxCell id="P9-t-jY8PYCdQ8GlsWrF-169" style="edgeStyle=none;rounded=0;orthogonalLoop=1;jettySize=auto;html=1;exitX=0;exitY=0.5;exitDx=0;exitDy=0;fontSize=11;startArrow=classic;startFill=1;endArrow=none;endFill=0;" edge="1" parent="1">
          <mxGeometry relative="1" as="geometry">
            <mxPoint x="-695" y="1397" as="targetPoint" />
            <mxPoint x="-655" y="1397" as="sourcePoint" />
          </mxGeometry>
        </mxCell>
        <mxCell id="P9-t-jY8PYCdQ8GlsWrF-170" style="edgeStyle=none;rounded=0;orthogonalLoop=1;jettySize=auto;html=1;exitX=0;exitY=0.5;exitDx=0;exitDy=0;startArrow=classic;startFill=1;endArrow=none;endFill=0;fontSize=11;" edge="1" parent="1">
          <mxGeometry relative="1" as="geometry">
            <mxPoint x="-695" y="1477" as="targetPoint" />
            <mxPoint x="-655" y="1477" as="sourcePoint" />
          </mxGeometry>
        </mxCell>
        <mxCell id="P9-t-jY8PYCdQ8GlsWrF-171" value="" style="shape=umlActor;verticalLabelPosition=bottom;verticalAlign=top;html=1;outlineConnect=0;fontSize=11;" vertex="1" parent="1">
          <mxGeometry x="-740" y="1452" width="10" height="20" as="geometry" />
        </mxCell>
        <mxCell id="P9-t-jY8PYCdQ8GlsWrF-172" value="" style="shape=umlActor;verticalLabelPosition=bottom;verticalAlign=top;html=1;outlineConnect=0;fontSize=11;" vertex="1" parent="1">
          <mxGeometry x="-720" y="1452" width="10" height="20" as="geometry" />
        </mxCell>
        <mxCell id="P9-t-jY8PYCdQ8GlsWrF-173" value="" style="shape=umlActor;verticalLabelPosition=bottom;verticalAlign=top;html=1;outlineConnect=0;fontSize=11;" vertex="1" parent="1">
          <mxGeometry x="-760" y="1452" width="10" height="20" as="geometry" />
        </mxCell>
        <mxCell id="P9-t-jY8PYCdQ8GlsWrF-174" value="Business Area 2" style="text;html=1;strokeColor=none;fillColor=none;align=center;verticalAlign=middle;whiteSpace=wrap;rounded=0;fontSize=11;" vertex="1" parent="1">
          <mxGeometry x="-765" y="1482" width="60" height="20" as="geometry" />
        </mxCell>
        <mxCell id="P9-t-jY8PYCdQ8GlsWrF-175" value="" style="shape=umlActor;verticalLabelPosition=bottom;verticalAlign=top;html=1;outlineConnect=0;fontSize=11;" vertex="1" parent="1">
          <mxGeometry x="-740" y="1372" width="10" height="20" as="geometry" />
        </mxCell>
        <mxCell id="P9-t-jY8PYCdQ8GlsWrF-176" value="" style="shape=umlActor;verticalLabelPosition=bottom;verticalAlign=top;html=1;outlineConnect=0;fontSize=11;" vertex="1" parent="1">
          <mxGeometry x="-720" y="1372" width="10" height="20" as="geometry" />
        </mxCell>
        <mxCell id="P9-t-jY8PYCdQ8GlsWrF-177" value="" style="shape=umlActor;verticalLabelPosition=bottom;verticalAlign=top;html=1;outlineConnect=0;fontSize=11;" vertex="1" parent="1">
          <mxGeometry x="-760" y="1372" width="10" height="20" as="geometry" />
        </mxCell>
        <mxCell id="P9-t-jY8PYCdQ8GlsWrF-178" value="Business Area 1" style="text;html=1;strokeColor=none;fillColor=none;align=center;verticalAlign=middle;whiteSpace=wrap;rounded=0;fontSize=11;" vertex="1" parent="1">
          <mxGeometry x="-765" y="1402" width="60" height="20" as="geometry" />
        </mxCell>
        <mxCell id="P9-t-jY8PYCdQ8GlsWrF-179" value="" style="shape=umlActor;verticalLabelPosition=bottom;verticalAlign=top;html=1;outlineConnect=0;fontSize=11;" vertex="1" parent="1">
          <mxGeometry x="-740" y="1532" width="10" height="20" as="geometry" />
        </mxCell>
        <mxCell id="P9-t-jY8PYCdQ8GlsWrF-180" value="" style="shape=umlActor;verticalLabelPosition=bottom;verticalAlign=top;html=1;outlineConnect=0;fontSize=11;" vertex="1" parent="1">
          <mxGeometry x="-720" y="1532" width="10" height="20" as="geometry" />
        </mxCell>
        <mxCell id="P9-t-jY8PYCdQ8GlsWrF-181" value="" style="shape=umlActor;verticalLabelPosition=bottom;verticalAlign=top;html=1;outlineConnect=0;fontSize=11;" vertex="1" parent="1">
          <mxGeometry x="-760" y="1532" width="10" height="20" as="geometry" />
        </mxCell>
        <mxCell id="P9-t-jY8PYCdQ8GlsWrF-182" value="Business Area 3" style="text;html=1;strokeColor=none;fillColor=none;align=center;verticalAlign=middle;whiteSpace=wrap;rounded=0;fontSize=11;" vertex="1" parent="1">
          <mxGeometry x="-765" y="1562" width="60" height="20" as="geometry" />
        </mxCell>
        <mxCell id="P9-t-jY8PYCdQ8GlsWrF-183" value="" style="shape=umlActor;verticalLabelPosition=bottom;verticalAlign=top;html=1;outlineConnect=0;fontSize=11;" vertex="1" parent="1">
          <mxGeometry x="-740" y="1612" width="10" height="20" as="geometry" />
        </mxCell>
        <mxCell id="P9-t-jY8PYCdQ8GlsWrF-184" value="" style="shape=umlActor;verticalLabelPosition=bottom;verticalAlign=top;html=1;outlineConnect=0;fontSize=11;" vertex="1" parent="1">
          <mxGeometry x="-720" y="1612" width="10" height="20" as="geometry" />
        </mxCell>
        <mxCell id="P9-t-jY8PYCdQ8GlsWrF-185" value="" style="shape=umlActor;verticalLabelPosition=bottom;verticalAlign=top;html=1;outlineConnect=0;fontSize=11;" vertex="1" parent="1">
          <mxGeometry x="-760" y="1612" width="10" height="20" as="geometry" />
        </mxCell>
        <mxCell id="P9-t-jY8PYCdQ8GlsWrF-186" value="Business Area 4" style="text;html=1;strokeColor=none;fillColor=none;align=center;verticalAlign=middle;whiteSpace=wrap;rounded=0;fontSize=11;" vertex="1" parent="1">
          <mxGeometry x="-765" y="1642" width="60" height="20" as="geometry" />
        </mxCell>
        <mxCell id="P9-t-jY8PYCdQ8GlsWrF-188" value="Application 1" style="ellipse;whiteSpace=wrap;html=1;aspect=fixed;fontSize=11;fillColor=#dae8fc;strokeColor=#6c8ebf;" vertex="1" parent="1">
          <mxGeometry x="-520" y="1365" width="64" height="64" as="geometry" />
        </mxCell>
        <mxCell id="P9-t-jY8PYCdQ8GlsWrF-190" value="Application 2" style="ellipse;whiteSpace=wrap;html=1;aspect=fixed;fontSize=11;fillColor=#dae8fc;strokeColor=#6c8ebf;" vertex="1" parent="1">
          <mxGeometry x="-520" y="1445" width="64" height="64" as="geometry" />
        </mxCell>
        <mxCell id="P9-t-jY8PYCdQ8GlsWrF-192" value="Application 3" style="ellipse;whiteSpace=wrap;html=1;aspect=fixed;fontSize=11;fillColor=#dae8fc;strokeColor=#6c8ebf;" vertex="1" parent="1">
          <mxGeometry x="-520" y="1525" width="64" height="64" as="geometry" />
        </mxCell>
        <mxCell id="P9-t-jY8PYCdQ8GlsWrF-194" value="Application 4" style="ellipse;whiteSpace=wrap;html=1;aspect=fixed;fontSize=11;fillColor=#dae8fc;strokeColor=#6c8ebf;" vertex="1" parent="1">
          <mxGeometry x="-520" y="1605" width="64" height="64" as="geometry" />
        </mxCell>
        <mxCell id="P9-t-jY8PYCdQ8GlsWrF-224" value="" style="edgeStyle=entityRelationEdgeStyle;rounded=0;orthogonalLoop=1;jettySize=auto;html=1;" edge="1" parent="1" source="P9-t-jY8PYCdQ8GlsWrF-205" target="P9-t-jY8PYCdQ8GlsWrF-223">
          <mxGeometry relative="1" as="geometry" />
        </mxCell>
        <mxCell id="P9-t-jY8PYCdQ8GlsWrF-205" value="Application 1" style="ellipse;whiteSpace=wrap;html=1;aspect=fixed;fontSize=11;fillColor=#e1d5e7;strokeColor=#9673a6;" vertex="1" parent="1">
          <mxGeometry x="-520" y="1365" width="64" height="64" as="geometry" />
        </mxCell>
        <mxCell id="P9-t-jY8PYCdQ8GlsWrF-226" value="" style="edgeStyle=entityRelationEdgeStyle;rounded=0;orthogonalLoop=1;jettySize=auto;html=1;" edge="1" parent="1" source="P9-t-jY8PYCdQ8GlsWrF-206" target="P9-t-jY8PYCdQ8GlsWrF-225">
          <mxGeometry relative="1" as="geometry" />
        </mxCell>
        <mxCell id="P9-t-jY8PYCdQ8GlsWrF-206" value="Application 2" style="ellipse;whiteSpace=wrap;html=1;aspect=fixed;fontSize=11;fillColor=#e1d5e7;strokeColor=#9673a6;" vertex="1" parent="1">
          <mxGeometry x="-520" y="1445" width="64" height="64" as="geometry" />
        </mxCell>
        <mxCell id="P9-t-jY8PYCdQ8GlsWrF-228" value="" style="edgeStyle=entityRelationEdgeStyle;rounded=0;orthogonalLoop=1;jettySize=auto;html=1;" edge="1" parent="1" source="P9-t-jY8PYCdQ8GlsWrF-207" target="P9-t-jY8PYCdQ8GlsWrF-227">
          <mxGeometry relative="1" as="geometry" />
        </mxCell>
        <mxCell id="P9-t-jY8PYCdQ8GlsWrF-207" value="Application 3" style="ellipse;whiteSpace=wrap;html=1;aspect=fixed;fontSize=11;fillColor=#e1d5e7;strokeColor=#9673a6;" vertex="1" parent="1">
          <mxGeometry x="-520" y="1525" width="64" height="64" as="geometry" />
        </mxCell>
        <mxCell id="P9-t-jY8PYCdQ8GlsWrF-230" value="" style="edgeStyle=entityRelationEdgeStyle;rounded=0;orthogonalLoop=1;jettySize=auto;html=1;" edge="1" parent="1" source="P9-t-jY8PYCdQ8GlsWrF-208" target="P9-t-jY8PYCdQ8GlsWrF-229">
          <mxGeometry relative="1" as="geometry" />
        </mxCell>
        <mxCell id="P9-t-jY8PYCdQ8GlsWrF-208" value="Application 4" style="ellipse;whiteSpace=wrap;html=1;aspect=fixed;fontSize=11;fillColor=#e1d5e7;strokeColor=#9673a6;" vertex="1" parent="1">
          <mxGeometry x="-520" y="1605" width="64" height="64" as="geometry" />
        </mxCell>
        <mxCell id="P9-t-jY8PYCdQ8GlsWrF-210" value="" style="shape=umlActor;verticalLabelPosition=bottom;verticalAlign=top;html=1;outlineConnect=0;fontSize=11;" vertex="1" parent="1">
          <mxGeometry x="85" y="1366" width="10" height="20" as="geometry" />
        </mxCell>
        <mxCell id="P9-t-jY8PYCdQ8GlsWrF-211" value="" style="shape=umlActor;verticalLabelPosition=bottom;verticalAlign=top;html=1;outlineConnect=0;fontSize=11;" vertex="1" parent="1">
          <mxGeometry x="97" y="1366" width="10" height="20" as="geometry" />
        </mxCell>
        <mxCell id="P9-t-jY8PYCdQ8GlsWrF-212" value="" style="shape=umlActor;verticalLabelPosition=bottom;verticalAlign=top;html=1;outlineConnect=0;fontSize=11;" vertex="1" parent="1">
          <mxGeometry x="109" y="1366" width="10" height="20" as="geometry" />
        </mxCell>
        <mxCell id="P9-t-jY8PYCdQ8GlsWrF-213" value="Users" style="text;html=1;strokeColor=none;fillColor=none;align=center;verticalAlign=middle;whiteSpace=wrap;rounded=0;fontSize=11;" vertex="1" parent="1">
          <mxGeometry x="72" y="1393" width="60" height="20" as="geometry" />
        </mxCell>
        <mxCell id="P9-t-jY8PYCdQ8GlsWrF-214" value="" style="endArrow=classic;html=1;exitX=0;exitY=0.25;exitDx=0;exitDy=0;entryX=1;entryY=0.5;entryDx=0;entryDy=0;" edge="1" parent="1" source="P9-t-jY8PYCdQ8GlsWrF-213" target="P9-t-jY8PYCdQ8GlsWrF-239">
          <mxGeometry width="50" height="50" relative="1" as="geometry">
            <mxPoint x="-295" y="1562" as="sourcePoint" />
            <mxPoint x="-245" y="1512" as="targetPoint" />
          </mxGeometry>
        </mxCell>
        <mxCell id="P9-t-jY8PYCdQ8GlsWrF-215" value="Applications loosely coupled, a change to one business capability does not require testing of all applications together" style="text;html=1;strokeColor=none;fillColor=none;align=left;verticalAlign=middle;whiteSpace=wrap;rounded=0;" vertex="1" parent="1">
          <mxGeometry x="-733" y="1280" width="213" height="70" as="geometry" />
        </mxCell>
        <mxCell id="P9-t-jY8PYCdQ8GlsWrF-218" value="Once deployment complete traffic is switched so users are redirected to new application." style="text;html=1;strokeColor=none;fillColor=none;align=left;verticalAlign=middle;whiteSpace=wrap;rounded=0;" vertex="1" parent="1">
          <mxGeometry x="29.5" y="1413" width="213" height="70" as="geometry" />
        </mxCell>
        <mxCell id="P9-t-jY8PYCdQ8GlsWrF-219" value="1" style="ellipse;whiteSpace=wrap;html=1;aspect=fixed;strokeWidth=2;fontFamily=Tahoma;spacingBottom=4;spacingRight=2;strokeColor=#d3d3d3;align=center;" vertex="1" parent="1">
          <mxGeometry x="-760" y="1305" width="20" height="20" as="geometry" />
        </mxCell>
        <mxCell id="P9-t-jY8PYCdQ8GlsWrF-222" value="4" style="ellipse;whiteSpace=wrap;html=1;aspect=fixed;strokeWidth=2;fontFamily=Tahoma;spacingBottom=4;spacingRight=2;strokeColor=#d3d3d3;align=center;" vertex="1" parent="1">
          <mxGeometry x="1" y="1436" width="20" height="20" as="geometry" />
        </mxCell>
        <mxCell id="P9-t-jY8PYCdQ8GlsWrF-232" value="" style="edgeStyle=entityRelationEdgeStyle;rounded=0;orthogonalLoop=1;jettySize=auto;html=1;" edge="1" parent="1" source="P9-t-jY8PYCdQ8GlsWrF-223" target="P9-t-jY8PYCdQ8GlsWrF-231">
          <mxGeometry relative="1" as="geometry" />
        </mxCell>
        <mxCell id="P9-t-jY8PYCdQ8GlsWrF-223" value="Release 1" style="ellipse;whiteSpace=wrap;html=1;aspect=fixed;fontSize=11;fillColor=#e1d5e7;strokeColor=#9673a6;" vertex="1" parent="1">
          <mxGeometry x="-400" y="1365" width="64" height="64" as="geometry" />
        </mxCell>
        <mxCell id="P9-t-jY8PYCdQ8GlsWrF-234" value="" style="edgeStyle=entityRelationEdgeStyle;rounded=0;orthogonalLoop=1;jettySize=auto;html=1;" edge="1" parent="1" source="P9-t-jY8PYCdQ8GlsWrF-225" target="P9-t-jY8PYCdQ8GlsWrF-233">
          <mxGeometry relative="1" as="geometry" />
        </mxCell>
        <mxCell id="P9-t-jY8PYCdQ8GlsWrF-225" value="Release 2" style="ellipse;whiteSpace=wrap;html=1;aspect=fixed;fontSize=11;fillColor=#e1d5e7;strokeColor=#9673a6;" vertex="1" parent="1">
          <mxGeometry x="-400" y="1445" width="64" height="64" as="geometry" />
        </mxCell>
        <mxCell id="P9-t-jY8PYCdQ8GlsWrF-236" value="" style="edgeStyle=entityRelationEdgeStyle;rounded=0;orthogonalLoop=1;jettySize=auto;html=1;" edge="1" parent="1" source="P9-t-jY8PYCdQ8GlsWrF-227" target="P9-t-jY8PYCdQ8GlsWrF-235">
          <mxGeometry relative="1" as="geometry" />
        </mxCell>
        <mxCell id="P9-t-jY8PYCdQ8GlsWrF-227" value="Release 3" style="ellipse;whiteSpace=wrap;html=1;aspect=fixed;fontSize=11;fillColor=#e1d5e7;strokeColor=#9673a6;" vertex="1" parent="1">
          <mxGeometry x="-400" y="1525" width="64" height="64" as="geometry" />
        </mxCell>
        <mxCell id="P9-t-jY8PYCdQ8GlsWrF-238" value="" style="edgeStyle=entityRelationEdgeStyle;rounded=0;orthogonalLoop=1;jettySize=auto;html=1;" edge="1" parent="1" source="P9-t-jY8PYCdQ8GlsWrF-229" target="P9-t-jY8PYCdQ8GlsWrF-237">
          <mxGeometry relative="1" as="geometry" />
        </mxCell>
        <mxCell id="P9-t-jY8PYCdQ8GlsWrF-229" value="Release 4" style="ellipse;whiteSpace=wrap;html=1;aspect=fixed;fontSize=11;fillColor=#e1d5e7;strokeColor=#9673a6;" vertex="1" parent="1">
          <mxGeometry x="-400" y="1605" width="64" height="64" as="geometry" />
        </mxCell>
        <mxCell id="P9-t-jY8PYCdQ8GlsWrF-231" value="Application 1" style="ellipse;whiteSpace=wrap;html=1;aspect=fixed;fontSize=11;fillColor=#dae8fc;strokeColor=#6c8ebf;" vertex="1" parent="1">
          <mxGeometry x="-256" y="1365" width="64" height="64" as="geometry" />
        </mxCell>
        <mxCell id="P9-t-jY8PYCdQ8GlsWrF-233" value="Application 2" style="ellipse;whiteSpace=wrap;html=1;aspect=fixed;fontSize=11;fillColor=#e1d5e7;strokeColor=#9673a6;" vertex="1" parent="1">
          <mxGeometry x="-256" y="1445" width="64" height="64" as="geometry" />
        </mxCell>
        <mxCell id="P9-t-jY8PYCdQ8GlsWrF-235" value="Application 3" style="ellipse;whiteSpace=wrap;html=1;aspect=fixed;fontSize=11;fillColor=#e1d5e7;strokeColor=#9673a6;" vertex="1" parent="1">
          <mxGeometry x="-256" y="1525" width="64" height="64" as="geometry" />
        </mxCell>
        <mxCell id="P9-t-jY8PYCdQ8GlsWrF-237" value="Application 4" style="ellipse;whiteSpace=wrap;html=1;aspect=fixed;fontSize=11;fillColor=#e1d5e7;strokeColor=#9673a6;" vertex="1" parent="1">
          <mxGeometry x="-256" y="1605" width="64" height="64" as="geometry" />
        </mxCell>
        <mxCell id="P9-t-jY8PYCdQ8GlsWrF-239" value="Application 1" style="ellipse;whiteSpace=wrap;html=1;aspect=fixed;fontSize=11;fillColor=#d5e8d4;strokeColor=#82b366;" vertex="1" parent="1">
          <mxGeometry x="-160" y="1366.5" width="64" height="64" as="geometry" />
        </mxCell>
        <mxCell id="P9-t-jY8PYCdQ8GlsWrF-243" value="Applications are packaged into individual releases to be deployed separately need.&amp;nbsp; Releases can be small and rapid" style="text;html=1;strokeColor=none;fillColor=none;align=left;verticalAlign=middle;whiteSpace=wrap;rounded=0;" vertex="1" parent="1">
          <mxGeometry x="-491.5" y="1280" width="191.5" height="70" as="geometry" />
        </mxCell>
        <mxCell id="P9-t-jY8PYCdQ8GlsWrF-244" value="2" style="ellipse;whiteSpace=wrap;html=1;aspect=fixed;strokeWidth=2;fontFamily=Tahoma;spacingBottom=4;spacingRight=2;strokeColor=#d3d3d3;align=center;" vertex="1" parent="1">
          <mxGeometry x="-521.5" y="1305" width="20" height="20" as="geometry" />
        </mxCell>
        <mxCell id="P9-t-jY8PYCdQ8GlsWrF-245" value="Applications have their own lifecycle and are deployed to existing environment.&amp;nbsp; Other applications are unaffected." style="text;html=1;strokeColor=none;fillColor=none;align=left;verticalAlign=middle;whiteSpace=wrap;rounded=0;" vertex="1" parent="1">
          <mxGeometry y="1270" width="213" height="70" as="geometry" />
        </mxCell>
        <mxCell id="P9-t-jY8PYCdQ8GlsWrF-246" value="3" style="ellipse;whiteSpace=wrap;html=1;aspect=fixed;strokeWidth=2;fontFamily=Tahoma;spacingBottom=4;spacingRight=2;strokeColor=#d3d3d3;align=center;" vertex="1" parent="1">
          <mxGeometry x="-30" y="1295" width="20" height="20" as="geometry" />
        </mxCell>
      </root>
    </mxGraphModel>
  </diagram>
</mxfile>
